<svg xmlns="http://www.w3.org/2000/svg" xmlns:xlink="http://www.w3.org/1999/xlink" fill="#ff236c" x="0px" y="0px" viewBox="0 0 100 100" style="enable-background:new 0 0 100 100;" xml:space="preserve">
<path style="fill-rule:evenodd; clip-rule:evenodd;" d="M75.5,18.9c2.7-1,5.6,0.4,6.6,3.1c0.6,1.7,0.3,3.5-0.7,4.9  c-0.9,0.2-1.8,0.5-2.6,0.9l1.8,4.9c1.3-0.9,3-1.2,4.6-0.6c2.5,0.9,3.9,3.5,3.2,6.1c-0.4,1.6-1.6,3-3.2,3.6c-1.2,0.4-2.9,0.4-4.2,0  c-2.1-0.8-3.4-2.7-3.4-4.8h-5.1c0,2.2-1.3,4.1-3.4,4.8C68.4,41.9,67.7,42,67,42v5.1c1.3,0,2.6-0.2,3.9-0.6c1.7-0.6,3.1-1.6,4.2-2.9  c1.1,1.2,2.5,2.2,4.2,2.9c1.3,0.5,2.6,0.7,3.9,0.6c1.3,0,2.6-0.2,3.8-0.6c1.1-0.4,2-0.9,2.9-1.6c2,0.1,3.8,1.4,4.6,3.4  c1,2.7-0.4,5.6-3.1,6.6c-0.5,0.2-1,0.3-1.5,0.3c-0.8-0.7-1.8-1.2-2.9-1.6c-2.4-0.9-4.8-0.8-7,0c-0.8,2.3-3.2,3.7-5.6,3.3V62  c3.4,0.3,6.8-1.2,8.9-4c0.6,0,1.3,0.1,2,0.3c2.7,1,4,3.9,3.1,6.6c-0.7,2-2.6,3.3-4.6,3.4c-0.5-0.4-1.1-0.8-1.7-1.1L81.7,68l-1.5,4.1  c0.9,0.6,1.6,1.4,1.9,2.5c1,2.7-0.4,5.6-3.1,6.6c-2.6,1-5.5-0.4-6.5-3c-1.6-4.4-5.8-7.2-10.5-6.8v5.2c3.1-0.5,5.9,2,5.9,5.1  c0,2.8-2.3,5.1-5.1,5.1c-2.8,0-5.1-2.3-5.1-5.1v-8.9V27.3v-8.9c0-2.8,2.3-5.1,5.1-5.1c2.5,0,4.6,1.8,5,4.2c-2.6,1-4.8,3.2-5.8,6  l4.8,1.8c0.9-2.3,3.2-3.7,5.6-3.3C73,20.5,74.1,19.4,75.5,18.9L75.5,18.9z M24.5,81.1c-2.7,1-5.6-0.4-6.6-3.1  c-0.6-1.7-0.3-3.5,0.7-4.8c0.9-0.2,1.8-0.5,2.6-0.9l-1.8-4.9c-1.3,0.9-3,1.2-4.6,0.6c-2.5-0.9-3.9-3.5-3.2-6.1  c0.4-1.6,1.6-3,3.2-3.6c1.2-0.5,2.9-0.5,4.2,0c2.1,0.8,3.4,2.7,3.4,4.8h5.1c0-2.2,1.3-4.1,3.4-4.8c0.7-0.3,1.4-0.3,2.1-0.3v-5.1  c-1.3,0-2.6,0.1-3.8,0.6c-1.7,0.6-3.1,1.6-4.2,2.9c-1.1-1.2-2.5-2.2-4.2-2.9c-1.3-0.5-2.6-0.7-3.9-0.6c-1.3,0-2.6,0.1-3.9,0.6  c-1.1,0.4-2,0.9-2.9,1.6c-2-0.1-3.8-1.4-4.6-3.4c-1-2.7,0.4-5.6,3.1-6.6c0.5-0.2,1-0.3,1.5-0.3c0.8,0.7,1.8,1.2,2.9,1.6  c2.4,0.9,4.8,0.8,7,0c0.9-2.3,3.2-3.7,5.6-3.3V38c-3.4-0.3-6.8,1.2-8.9,4c-0.7,0-1.3-0.1-2-0.3c-2.7-1-4-3.9-3.1-6.6  c0.7-2,2.6-3.3,4.6-3.4c0.5,0.4,1.1,0.8,1.7,1.1l0.3-0.8l1.5-4.1c-0.9-0.6-1.5-1.4-1.9-2.5c-1-2.7,0.4-5.6,3.1-6.6  c2.6-1,5.5,0.4,6.5,3C29,26.2,33.3,29,38,28.7v-5.2c-3.1,0.5-5.9-2-5.9-5.1c0-2.8,2.3-5.1,5.1-5.1c2.8,0,5.1,2.3,5.1,5.1v8.9v45.4  v8.9c0,2.8-2.3,5.1-5.1,5.1c-2.5,0-4.6-1.8-5-4.2c2.6-1.1,4.8-3.2,5.8-6l-4.8-1.8c-0.8,2.3-3.2,3.7-5.6,3.3  C27,79.5,25.9,80.6,24.5,81.1L24.5,81.1z M6.9,59.6c-2.8-1-5.1-3.2-6.1-6.1c-1.9-5.3,0.8-11.2,6.1-13.2l0,0c-0.8-2.2-0.9-4.7,0-7  c1.1-3,3.4-5.1,6.1-6.1v0C11.1,21.9,13.9,16,19.2,14c2.9-1.1,5.9-0.7,8.4,0.6c1.5-3.8,5.2-6.5,9.6-6.5c5.7,0,10.3,4.6,10.3,10.3  v63.2c0,5.7-4.6,10.3-10.3,10.3c-4.3,0-8.1-2.7-9.6-6.5c-0.4,0.2-0.9,0.5-1.4,0.6c-5.3,1.9-11.2-0.8-13.2-6.1c-0.9-2.4-0.8-4.8,0-7  l0,0c-3.9-1.4-6.4-5-6.7-8.8C6.2,62.7,6.3,60.8,6.9,59.6L6.9,59.6z M93.1,40.4c2.8,1,5.1,3.2,6.1,6.1c1.9,5.3-0.8,11.2-6.1,13.2l0,0  c0.8,2.2,0.9,4.7,0,7c-1.1,3-3.4,5.1-6.1,6.1v0c1.9,5.3-0.8,11.2-6.1,13.2c-2.9,1-5.9,0.7-8.4-0.6c-1.5,3.8-5.2,6.5-9.6,6.5  c-5.7,0-10.3-4.6-10.3-10.3V18.4c0-5.7,4.6-10.3,10.3-10.3c4.3,0,8.1,2.7,9.6,6.5c0.4-0.2,0.9-0.4,1.4-0.6  c5.3-1.9,11.2,0.8,13.2,6.1c0.9,2.4,0.8,4.8,0,7l0,0c3.9,1.4,6.4,5,6.7,8.8C93.8,37.3,93.7,39.2,93.1,40.4L93.1,40.4z"></path>
</svg>