<svg xmlns="http://www.w3.org/2000/svg" xmlns:xlink="http://www.w3.org/1999/xlink" x="0px" y="0px" viewBox="0 0 100 100" fill="white" style="enable-background:new 0 0 100 100;" xml:space="preserve">
<path style="fill-rule:evenodd; clip-rule:evenodd;" d="M55.3,16.8c-2.7,2.7-6.8,3.3-10,1.7c0.4,0.9,1,1.7,1.7,2.4  c3.4,3.4,9,3.4,12.5,0c3.4-3.4,3.4-9,0-12.5C56,5,50.4,5,47,8.4c-1.1,1.2-1.1,3,0,4.2c1.1,1.1,3,1.1,4.2,0L55.3,16.8L55.3,16.8z   M20,44.8h21.3c2.4,0,4.6-1,6.2-2.6l9.3-9.3v23.6h5.9V27.2c0-1.6,1.3-2.9,2.9-2.9c1.6,0,2.9,1.3,2.9,2.9v29.4c0,3.2-2.7,5.8-5.9,5.8  H45.1c-2.3,0-4.5,0.9-6.2,2.6c-3.4,3.4-3.4,9,0,12.5l16.6,16.6h-9.3v5.9h17.6c3.5,0,6.7-1.6,8.8-4c2.2,2.4,5.3,4,8.8,4h5.9v-5.9  h-5.9c-3.1,0-5.9-2.6-5.9-5.8v-8.3c6-0.5,10.8-5.6,10.7-11.7V41.9c0-3.2,2.7-5.9,5.9-5.9v-5.9c-6.4,0-11.8,5.3-11.8,11.8v26.4  c0,3.2-2.7,5.9-5.9,5.9H52.2l5.9,5.9h11.6v8.1c0,3.2-2.7,5.9-5.9,5.9L43,73.4c-1.2-1.1-1.1-3,0-4.2c0.6-0.6,1.3-0.9,2.1-0.9l17.6,0  c6.4,0,11.8-5.3,11.8-11.8V27.2c0-4.2-3.1-7.8-7.1-8.7c1.3-4.9,0.1-10.4-3.8-14.2c-5.7-5.7-15.1-5.7-20.8,0C37,10,37,19.3,42.8,25.1  c2.6,2.6,5.9,4,9.3,4.3l-8.7,8.7c-0.5,0.5-1.3,0.9-2.1,0.9h-7.1l5.9-5.9L36,28.9L20,44.8L20,44.8z M13.7,94.1h18  c0.8,0,1.5-0.3,2.1-0.9c1.1-1.1,1.1-3,0-4.2L10.4,65.8c-3.4-3.4-3.4-9,0-12.5c1.7-1.7,4-2.6,6.2-2.6H51v5.9H28.4H16.7  c-0.7,0-1.5,0.3-2.1,0.9c-1.1,1.1-1.1,3,0,4.2L38,85c3.4,3.4,3.4,9,0,12.5c-1.7,1.7-4,2.6-6.2,2.6h-18V94.1L13.7,94.1z"></path>
</svg>