<svg xmlns="http://www.w3.org/2000/svg" xmlns:xlink="http://www.w3.org/1999/xlink" x="0px" y="0px" fill="white" viewBox="0 0 100 100" style="enable-background:new 0 0 100 100;" xml:space="preserve">
<path style="fill-rule:evenodd; clip-rule:evenodd;" d="M65,25H55c-5.5,0-10-4.5-10-10v-5h5v5c0,2.8,2.3,5,5,5h10  c0-8.2-6.8-15-15-15c-8.1,0-15.1,6.8-15,15v5c-1.4,0-2.5,1.1-2.5,2.5v5c0,1.4,1.1,2.5,2.5,2.5c-0.1,8.2,6.8,15,15,15  c8,0,14.9-6.6,15-14.6V35c1.4,0,2.5-1.1,2.5-2.5v-5C67.5,26.2,66.4,25,65,25L65,25z M32.5,55H35v-6.8c-2.4-2.7-4.1-6.1-4.7-9.9  c-1.7-1.4-2.8-3.5-2.8-5.8v-5c0-2.2,1-4.2,2.5-5.6V20c-0.1-11,9.1-20,20-20c10.9,0,20.1,9,20,20v1.9c1.5,1.4,2.5,3.4,2.5,5.6v5  c0,2.3-1.1,4.4-2.8,5.8c-0.6,3.7-2.3,7.1-4.7,9.8V55l2.5,0C79.9,55,90,65.1,90,77.5V100H10V77.5C10,65.1,20.1,55,32.5,55L32.5,55z   M35.9,60h-3.4C22.9,60,15,67.9,15,77.5V95h10V85h5v10h40V85h5v10h10V77.5C85,67.9,77.1,60,67.5,60h-3.4c-2.1,5.8-7.6,10-14.1,10  S37.9,65.8,35.9,60L35.9,60z M41.3,40h17.3c-1.8,3-5.1,5-8.7,5C46.4,45,43.1,43,41.3,40L41.3,40z M40,52.3C43,54,46.4,55,50,55  s7-1,10-2.7V55c0,5.5-4.5,10-10,10c-5.5,0-10-4.5-10-10V52.3L40,52.3z"></path>
</svg>