<svg xmlns="http://www.w3.org/2000/svg" xmlns:xlink="http://www.w3.org/1999/xlink" x="0px" y="0px" viewBox="0 0 100 100" style="enable-background:new 0 0 100 100;" xml:space="preserve">
<path style="opacity:0.4;fill-rule:evenodd;clip-rule:evenodd;fill:#64C8FF;" d="M89.6,87.2c0,0-10.4,9.2-20.2,10.6  c0,0-14.8,4.6-24-1.5c0,0-12.3-3.8-9.1-19.9c0,0-3.1-11.7-9.4-9.4c0,0-13.2-1.6-16.5-4.4c0,0-7.2-6.7-8.9-26.3c0,0,1-13.4,6.8-22.1  c0,0,6.6-9.8,16.8-12.8c0,0,22.1-6.5,24.6,17.6c0,0-2.2,15.5,2.9,24.4c0,0,9.9,6.8,21,19.4C73.6,62.8,116.5,54.3,89.6,87.2z"></path>
<g>
	<path style="fill:#B9D12E;" d="M61.3,43.1c-2.8,8,2,16.9,10.6,19.9c8.6,3,17.9-1,20.7-9c2.8-8-2-16.9-10.6-19.9   C73.3,31.1,64.1,35.1,61.3,43.1z"></path>
	<path style="opacity:0.1;fill:#3E6B12;" d="M90.2,40c-2.2-1.8-4.3,0.1-4.2,1.9c0.1,1.5,3.2,4,1.4,9c-1.5,4.4-4.5,7.6-11.7,7.9   c-5.1,0.2-10.5-2.5-13.6-8.5c-1.6-3.1-1.4-4.6-1.3-5.4c-1.7,7.5,3,15.5,11.1,18.3c8.6,3,17.9-1,20.7-9c0.6-1.8,0.9-3.6,0.8-5.4   C93.3,46.9,92.2,42.2,90.2,40z"></path>
	<path style="opacity:0.3;fill:#3E6B12;" d="M79.6,40.9c-2.3-0.2-5.8-1.5-3.7-4.2C77.8,34.1,84.7,35,86,38   C86.9,40,83,41.2,79.6,40.9z"></path>
	<path style="fill:#E0E560;" d="M62.2,40.9c3.5-6.4,11.7-9.5,19.5-6.9c-1.9,0.4-9.8,0.2-8.1,5.1c1.5,4.2,7.4,3.8,8.8,5.2   c1.4,1.4,1.6,3.5,1.2,4.6c-1,2.9-5.2,6.1-11.2,4.8C66.9,52.5,61.7,46.2,62.2,40.9z"></path>
	<path style="opacity:0.7;fill:#3E6B12;" d="M80.2,38.2c-0.7-0.1-1.8-0.5-1.2-1.3c0.6-0.7,2.8-0.4,3.2,0.5   C82.5,38.1,81.3,38.4,80.2,38.2z"></path>
	<g style="opacity:0.5;">
		<g>
			<g>
				<g>
					<g>
						<g>
							<path style="fill:#FFFFFF;" d="M70.6,40c0.1,1.2-0.7,2.2-1.8,2.3c-1.1,0.1-2-0.8-2.1-2c-0.1-1.2,0.7-2.2,1.8-2.3         C69.6,37.9,70.5,38.8,70.6,40z"></path>
						</g>
					</g>
				</g>
			</g>
		</g>
	</g>
	<g style="opacity:0.5;">
		<g>
			<g>
				<g>
					<g>
						<g>
							<path style="fill:#FFFFFF;" d="M70.8,43.4c0,0.5-0.3,1-0.8,1c-0.5,0-0.9-0.4-1-0.9c0-0.5,0.3-1,0.8-1         C70.3,42.4,70.7,42.8,70.8,43.4z"></path>
						</g>
					</g>
				</g>
			</g>
		</g>
	</g>
	<path style="fill:#E0E560;" d="M75.5,39.1c0,0,0.2,0.1,0.5,0.2c0.3,0.1,0.7,0.3,1.3,0.5c0.3,0.1,0.5,0.2,0.9,0.3   c0.2,0,0.3,0.1,0.5,0.1c0.2,0,0.3,0.1,0.5,0.1c0.2,0,0.3,0.1,0.5,0.1c0.2,0,0.3,0,0.5,0.1c0.4,0,0.7,0,1.1,0c0.4,0,0.7-0.1,1-0.1   c0.2,0,0.3-0.1,0.5-0.1c0,0,0.1,0,0.1,0c0,0,0.1,0,0.1,0c0.1,0,0.2,0,0.2-0.1c0.1,0,0.2-0.1,0.2-0.1c0.1,0,0.1-0.1,0.2-0.1   c0.1,0,0.1-0.1,0.2-0.1c0.1,0,0.1-0.1,0.2-0.1c0.1-0.1,0.3-0.1,0.4-0.2c0.1,0,0.1-0.1,0.2-0.1c0.1,0,0.1-0.1,0.2-0.1   c0.2-0.2,0.4-0.3,0.5-0.5c0.1-0.1,0.1-0.2,0.2-0.2c0.1-0.1,0.1-0.1,0.2-0.2c0.1-0.1,0.2-0.2,0.2-0.3C86,38.1,86,38,86,38s0,0,0,0   c0,0,0,0.1,0,0.1c0,0.1,0,0.2,0,0.4c0,0.2-0.1,0.4-0.2,0.6c-0.1,0.2-0.3,0.5-0.5,0.7c-0.1,0.1-0.2,0.2-0.3,0.4c0,0-0.1,0.1-0.1,0.1   c0,0-0.1,0.1-0.1,0.1c-0.1,0.1-0.1,0.1-0.2,0.2c-0.1,0.1-0.2,0.1-0.2,0.1c-0.1,0-0.2,0.1-0.2,0.1c-0.2,0.1-0.3,0.2-0.5,0.2   c-0.1,0-0.2,0.1-0.3,0.1c0,0-0.1,0-0.1,0l0,0l0,0l0,0l0,0l-0.1,0c-0.2,0.1-0.4,0.1-0.6,0.1c-0.2,0-0.4,0.1-0.6,0.1   c-0.2,0-0.4,0-0.6,0c-0.2,0-0.4,0-0.6,0c-0.2,0-0.4,0-0.6-0.1c-0.2,0-0.4-0.1-0.6-0.1c-0.2,0-0.4-0.1-0.6-0.2   c-0.2-0.1-0.4-0.1-0.5-0.2c-0.2-0.1-0.3-0.1-0.5-0.2c-0.3-0.1-0.6-0.3-0.8-0.5c-0.5-0.3-0.9-0.6-1.1-0.9   C75.7,39.3,75.5,39.1,75.5,39.1z"></path>
	<path style="fill:#7C201E;" d="M80,38c0,0,1.6-3.2,3.5-4.5c2.4-1.7,4.1-0.3,4.1-0.3l-0.5-2.9c0,0-2.1-0.3-3.9,0.7   c-2.9,1.7-3.7,6.8-3.7,6.8L80,38z"></path>
	<path style="fill:#600606;" d="M80.1,37.9c0,0,1.6-3.2,3.5-4.5c2.4-1.7,4.1-0.3,4.1-0.3l-0.4-1.4c0,0-2.1-0.3-3.9,0.7   c-2.9,1.7-3.8,5.3-3.8,5.3L80.1,37.9z"></path>
	<g>
		<g>
			<polygon style="fill:#A33C00;" points="31.7,31.7 28,28 24.4,31.6 30.8,36.9    "></polygon>
		</g>
	</g>
	<g>
		<g>
			<path style="fill:#FCC107;" d="M28.6,35.2c0,0,7.5,12.4,1,23.5c-7.4,12.5-26,15.8-26.7,16.9c-0.7,1.1-1.2,3.3-0.2,3.7     c1,0.4,6.7,4.4,18.1,1.7c11.6-2.7,33.6-20.5,21.4-42.6c-3.8-6.9-11.6-7.2-11.6-7.2L28.6,35.2z"></path>
		</g>
	</g>
	<g>
		<g>
			<path style="fill:#F2A718;" d="M2.4,77.8c-0.2,0.9,0,1.2,0.6,1.4c1,0.4,6.7,4.3,18.1,1.6c11.6-2.7,33.6-20.6,21.4-42.5     c-3.8-6.9-11.6-7.1-11.6-7.1l-0.8,1.5c0,0,17.8,11.8,6.3,31.3C26.3,81.1,2.5,77.2,2.4,77.8z"></path>
		</g>
	</g>
	<g>
		<g>
			<path style="fill:#FFDD01;" d="M29.8,63.4c-1.8-1.2-3.4,3.3-8,6.3c-4.6,3-7.7,4.2-7.7,4.2s4.8-0.7,8.5-2.2     C28.5,69.4,32.3,65.1,29.8,63.4z"></path>
		</g>
	</g>
	<g>
		<path style="fill:#9D9EE2;" d="M53.1,80.1c-3.1,0-6.1-0.4-8.3-1.2c-2.3-0.8-3.6-2-3.6-3.3c0-0.3-0.2-26.7,0-37.5    c0.2-8.9,1.2-10.5,2.6-12.7c0.3-0.5,0.7-1.1,1-1.8c1.8-3.5,1.9-10.1,1.9-10.2l0-0.3h13.1l0,0.3c0,0.1-0.2,6.7,1.6,10.2    c0.4,0.7,0.7,1.2,1,1.8c1.4,2.2,2.4,3.8,2.6,12.7c0.2,9.2,0.1,32.7,0.1,37.3c0,0.1,0,0.2,0,0.2c0,1.3-1.3,2.4-3.6,3.3    C59.1,79.6,56.2,80.1,53.1,80.1z M47.3,13.7c0,1.4-0.3,6.9-2,10.2c-0.4,0.7-0.7,1.3-1.1,1.8c-1.3,2.1-2.3,3.7-2.5,12.4    c-0.2,10.8,0,37.2,0,37.5c0,1.9,4.5,3.9,11.3,3.9s11.3-2,11.3-3.9c0,0,0-0.1,0-0.2c0-4.6,0.1-28.1-0.1-37.3    c-0.2-8.7-1.1-10.3-2.5-12.4c-0.3-0.5-0.7-1.1-1.1-1.8C59,20.6,59,15.1,59,13.7H47.3z"></path>
	</g>
	<path style="fill:#B6BFF2;" d="M63.7,37.7c-0.2-10.1-1.7-9.9-3.4-13.3c-1.7-3.4-2.1-9.5-2.1-9.5H47.8c0,0-0.2,6.2-2,9.5   c-1.7,3.4-3.2,3.2-3.4,13.3c-0.2,10.1,0,37.1,0,37.1c0,2.1,4.8,3.9,10.7,3.9c5.9,0,10.7-1.7,10.7-3.9   C63.8,74.7,63.9,47.1,63.7,37.7z"></path>
	<g style="opacity:0.5;">
		<g>
			<path style="fill:#FFFFFF;" d="M47.6,25.5c-0.9,0-2,0.1-2.5,5.1c-0.5,5,0.4,9.9,0.4,9.9S45.1,38,45.9,34c0.7-3.6,3.1-5.7,3.1-6.8     C49,26.2,48.2,25.5,47.6,25.5z"></path>
		</g>
	</g>
	<path style="opacity:0.9;fill:#F9FCFF;" d="M62.5,35.3h-19c-0.1,1.2-0.2,2.6-0.2,4.4c-0.2,9.9,0,33.9,0,33.9c0,2.1,4.3,3.8,9.7,3.8   c5.4,0,9.7-1.7,9.7-3.8c0-0.1,0.1-24.7,0-33.9C62.7,38,62.6,36.5,62.5,35.3z"></path>
	<path style="fill:#FFFFFF;" d="M62.5,35.3c0,2-4.3,3.6-9.5,3.6s-9.5-1.6-9.5-3.6c0-2,4.3-3.6,9.5-3.6S62.5,33.4,62.5,35.3z"></path>
	<path style="opacity:0.3;fill:#C0C3E2;" d="M64.6,38.2c-0.2-10.1-1.7-9.9-3.4-13.3c-1.7-3.4-2.1-9.5-2.1-9.5h-6.6   c0.3,1.9,0.8,4,1.6,5.6c1.7,3.4,3.2,3.2,3.4,13.3c0.2,9.4,1.2,33.9,0.1,37.1c-1.2,3.3-5.6,5.3-9.2,4.8c-4.9-0.6-5.6-2.3-6-2.4   c0,0.2-0.1,2-0.1,2c0,2.1,5.8,3.4,11.7,3.4c5.9,0,10.7-1.7,10.7-3.9C64.7,75.1,64.8,47.5,64.6,38.2z"></path>
	<path style="fill:#37C6B7;" d="M53,13.8c-6.9,0.1-8.1-2-8.1-2v3c0,1.5,3.6,2.7,8.1,2.7c4.5,0,8.1-1.2,8.1-2.7v-3   C61.1,11.8,59.9,13.7,53,13.8z"></path>
	<path style="fill:#55CFC4;" d="M61.1,11.8c0,1.5-3.6,2.7-8.1,2.7c-4.5,0-8.1-1.2-8.1-2.7c0-1.5,3.6-2.7,8.1-2.7   C57.5,9.1,61.1,10.3,61.1,11.8z"></path>
	<path style="fill:#7FDBD0;" d="M60.3,11.7c0,1.3-3.2,2.4-7.2,2.4c-4,0-7.2-1.1-7.2-2.4c0-1.3,3.2-2.4,7.2-2.4   C57,9.3,60.3,10.4,60.3,11.7z"></path>
	<path style="fill:#E58619;" d="M39.4,74.4c0.8,1.9,6.5,2.7,13.4,5.5c7.2,2.9,9.8,6.5,16,6.5c4.8,0,23.8-14,26.4-15.9   c1.1-0.8,1.6-5.6,1-6.3c-1.2-1.5-8-2.7-13.1-4.3c-6-1.8-9-2.6-13.3-2c-3.4,0.5-23.7,6.6-30.5,11.3C38.3,70,38.7,72.8,39.4,74.4z"></path>
	<path style="fill:#C36202;" d="M68.8,81.2c-0.3,2-2,4-3.7,4.9c1.8-0.1,3.4,0.6,5.1,0c3-1.1,10.9-5.4,13.9-7.3   c2.7-1.8,10.8-6.1,11.4-7.6c0.9-2,1-5.8,0.6-6.7c-1.7,4-7.7,5.7-11.3,7.5C80,74.4,68.8,81.2,68.8,81.2z"></path>
	<path style="fill:#C56203;" d="M64.1,58.9c0,0-24.8,7.1-24.8,10.5c0,2.6,7.4,3.5,14.3,6.2c7.2,2.9,9.7,6.3,15.9,6.3   c4.8,0,21.6-12.5,21.6-12.5s3.8-0.4,5-2.5c1.2-2.1,0.1-3.1-2.4-4.4c-3.2-1.6-4.8-2-9.9-3.6c-6-1.8-10.6-3.2-14.9-2.6   C64.6,56.9,64.1,58.9,64.1,58.9z"></path>
	<path style="fill:#F5DD7F;" d="M64.8,59.2c0,0-24,7-24,10.1c0,2.4,7.1,3.3,13.5,5.8C61,77.7,63.4,81,69.1,81   c4.4,0,21.4-12.2,21.4-12.2s3.5-0.3,4.6-2.3c1.2-2.1,0.1-2.7-2.5-4c-3-1.5-4.7-1.9-9.5-3.3c-5.6-1.7-9.9-3-13.9-2.4   C65.2,57.4,64.8,59.2,64.8,59.2z"></path>
	<path style="fill:#719622;" d="M43.3,67.5c-4-0.1-2.4,0.4-0.7,2.6c-0.9,0-1.8-0.1-2.4,0.4c2.3,0.5,0.3,2.2-0.6,3   c2.8,0.6,1.7,1.4,2.2,2.4c5.3-1.8,3.9,1.4,5.9,2.9c1.7-1.1,2.6-2.7,5-2.2c0.7,0.1,1.7,1.3,2.4,1.3c1,0,1.1-1,2.2-1   c0.1,0.7,0.5,1.3,0.9,1.8c1.5-1.5,1.6,2,5.3,3.1c0.4-1.1,0.6-2.6,1.8-2.8c1,1.5,2.7-0.4,2.7,0.4c0,2.5,2.8,2.8,3.5,2.5   c0,0,0.2-1.7,1.4-2.1c0.6-0.2,1.1,0,1.7-0.3c0.5-0.2,0.1-1.1,0.9-1.3c2.8-1.1,3.9,3.9,6.2,0.7c0.9-1.2,0.1-2,2.3-2.2   c0.6-0.1,1.4,0.5,2,0.2c0.9-0.4,0.5-0.8,1.1-1.4c2.2-2.2,3.8-2,6.5-1.1c0.4-2.7-0.7-1.7,1.8-3.1c-0.4-0.5-0.8-1-1.5-1.3   c0.6-1,1.1-0.9,1.4-2.1c-1.8,0.2-3,1.3-3.5-1.4c-1.6,0.1-2.9,2.1-4.6,2.4L43.3,67.5z"></path>
	<path style="fill:#A2CA01;" d="M44.1,67.9c-3.7-0.1-2.2,0.3-0.6,2.4c-0.9,0-2.4-0.9-3.3,0.2c2.1,0.5,1.6,2,0.7,2.7   c2.6,0.6,0.4,1.7,0.9,2.6c5.8-3.6,4.9,1.7,5.9,2.9c1.5-1,3.6-3.7,5.7-3.2c0.7,0.1,1,2.3,1.7,2.3c0.9,0,1.6-2.1,2.6-2.1   c0.1,0.7,0.5,1.2,0.9,1.6c1.4-1.4,1.7,2.4,5,4.3c0.3-1,0.5-3.8,1.6-4c1.7,2,3.3-0.7,3.2,0c-0.4,2.6,2.6,4.4,3.2,4.2   c0,0-0.5-3,0.7-3.3c0.6-0.2,1,0,1.6-0.2c0.5-0.2,0.1-1,0.8-1.2c2.6-1,4.6,4.2,6.8,1.3c0.9-1.2-0.9-2.5,1.1-2.7   c0.6-0.1,1.3,0.4,1.9,0.2c0.9-0.4,0.4-0.8,1-1.3c2-2,5.8-1,8.2-0.1c-0.5-2.9-0.9-3.5,1.8-3.1c-0.4-0.5-1.7-1.4-2.3-1.7   c0.6-0.9,1.9-0.6,2.3-1.7c-3.7,0.6-4.2,1.3-3.5-1.4c-1.5,0.1-4.8,1.6-6.4,1.9L44.1,67.9z"></path>
	<path style="fill:#E0F557;" d="M60.7,78.4c0.5,0.3,1.9,2.3,2.6,2.7c0.4-0.9-0.2-1.4-0.7-1.6C62.3,79.3,60.7,78.4,60.7,78.4z"></path>
	<path style="fill:#719622;" d="M44,72.3c-2,0.6-4.9,1-8.4-1.8l-0.3-0.9c0,0,2.8-0.7,1.5-3c2.1-1.7,0.5-4.6,0.5-4.6   c2,0.1,3.7-0.8,3.7-3.7c1.4,1.5,4.2,0.6,5.3-0.8c0.1,1.5,1.2,4.1,3,4c0.1,1.8,0.2,3.3,1,4.9C50.1,66.6,46.1,71.7,44,72.3z"></path>
	<path style="fill:#A2CA01;" d="M44,71.3c-2,0.6-5.2,1.2-8.8-1.6c1.1-0.7,2.3-1.9,1.5-3c3.2-1.1,0.5-4.6,0.5-4.6   c3.7,1,3.7-1.9,3.7-4.7c1.4,1.5,4.2,0.6,5.3-0.8c0.1,1.5,1.2,4.1,3,4c0.1,1.8,0.2,3.3,1,4.9C50.1,65.5,46.1,70.6,44,71.3z"></path>
	<g>
		<g>
			<g>
				<g>
					<g>
						<g>
							<path style="fill:#FC1E00;" d="M39.9,65.6l1,4.6c0,0,2,2.4,11.2,4.2c7,1.4,15.4-0.4,15.4-0.4l4.4-1.6l-3.1-4.4L39.9,65.6z"></path>
						</g>
					</g>
				</g>
			</g>
		</g>
	</g>
	<g>
		<g>
			<g>
				<g>
					<g>
						<g>
							<path style="fill:#D4002B;" d="M39.9,63.8l-0.1,1.8c0,0,3.1,3.6,11.4,5.4c6.5,1.4,15.4,0,15.4,0l0.2-4.3L39.9,63.8z"></path>
						</g>
					</g>
				</g>
			</g>
		</g>
	</g>
	<g>
		<g>
			<g>
				<g>
					<g>
						<g>
							<path style="fill:#FF7200;" d="M44.5,69.5c0,0,2.1,1.9,4.2,2.7c2.3,0.8,6.9,1.7,6.7,0.9c-0.2-0.7-5.1-1.2-7.1-1.8         C46.7,70.8,44.5,69.5,44.5,69.5z"></path>
						</g>
					</g>
				</g>
			</g>
		</g>
	</g>
	<g>
		<g>
			<path style="fill:#BD2D03;" d="M84.6,71.3c0.6,2.8-3.2,6-8.6,7.3c-5.4,1.2-10.3,0-11-2.8c-0.6-2.8,3.2-6,8.6-7.3     C79.1,67.3,84,68.5,84.6,71.3z"></path>
		</g>
	</g>
	<g>
		<g>
			<path style="fill:#BD2D03;" d="M84.8,70.8c0.4,2.8-3.6,5.8-9.1,6.7c-5.5,0.9-10.3-0.7-10.7-3.5c-0.4-2.8,3.6-5.8,9.1-6.7     C79.6,66.4,84.4,67.9,84.8,70.8z"></path>
		</g>
	</g>
	<g>
		<g>
			<path style="fill:#DB3401;" d="M83.5,71c0.4,2.5-3.2,5.1-7.9,5.8c-4.8,0.8-9-0.6-9.4-3.1c-0.4-2.5,3.2-5.1,7.9-5.8     C79,67.1,83.2,68.5,83.5,71z"></path>
		</g>
	</g>
	<g>
		<g>
			<g>
				<path style="fill:#BD2D03;" d="M73.8,76.6c-1.3,0.2-1.9-0.2-1.4-0.9l1.6-2.1c0.5-0.7,1.5-0.8,2.2-0.4l2.2,1.5      c0.7,0.5,0.2,1-1.1,1.3L73.8,76.6z"></path>
			</g>
		</g>
		<g>
			<g>
				<path style="fill:#BD2D03;" d="M82,73.3c-0.3,0.7-1.3,1-2.3,0.6l-3-1c-1-0.3-0.7-0.9,0.5-1.2l3.9-1c1.2-0.3,2,0,1.7,0.7L82,73.3      z"></path>
			</g>
		</g>
		<g>
			<g>
				<path style="fill:#BD2D03;" d="M80.4,68.7c1.1,0.2,1.1,0.8,0,1.3l-3.5,1.5c-1.1,0.5-2,0.3-1.9-0.4l0.2-2.1      c0.1-0.7,1-1.1,2.1-0.8L80.4,68.7z"></path>
			</g>
		</g>
		<g>
			<g>
				<path style="fill:#BD2D03;" d="M71.2,69.1c1-0.6,2-0.5,2.3,0.1l0.9,2c0.3,0.6-0.5,1.1-1.7,0.9L69,71.8c-1.2-0.1-1.4-0.6-0.4-1.2      L71.2,69.1z"></path>
			</g>
		</g>
		<g>
			<g>
				<path style="fill:#BD2D03;" d="M67.1,73.9c-0.5-0.6,0.1-1.1,1.4-1.2l4-0.3c1.3-0.1,1.7,0.3,0.9,1l-2.5,1.9      c-0.8,0.6-1.9,0.7-2.4,0.1L67.1,73.9z"></path>
			</g>
		</g>
	</g>
	<g>
		<g>
			<path style="fill:#DB3401;" d="M74.5,72.2c0,0-2.5-0.2-2.2-0.8c0.3-0.5,1.5,0,1.6,0.1C74.1,71.8,74.5,72.2,74.5,72.2z"></path>
		</g>
	</g>
	<g>
		<g>
			<path style="fill:#DB3401;" d="M74,72.7c0,0-1.9,1.5-2.7,1c-0.8-0.5,0.9-0.9,1.1-1C72.9,72.7,74,72.7,74,72.7z"></path>
		</g>
	</g>
	<g>
		<g>
			<path style="fill:#DB3401;" d="M74.8,72.5c0,0,1.5,1.1,0.5,1.5c-1,0.4-1.1-0.5-1-0.6C74.5,73.1,74.8,72.5,74.8,72.5z"></path>
		</g>
	</g>
	<g>
		<g>
			<path style="fill:#DB3401;" d="M75.9,72.4c0,0,2.7-1.1,3-0.4c0.3,0.7-1.5,0.7-1.7,0.7C76.8,72.7,75.9,72.4,75.9,72.4z"></path>
		</g>
	</g>
	<g>
		<g>
			<path style="fill:#DB3401;" d="M75.4,71.8c0,0-0.1-1.6,1.3-1.6c1.4,0,0.3,0.9,0.2,1C76.4,71.5,75.4,71.8,75.4,71.8z"></path>
		</g>
	</g>
	<g>
		<g>
			<g>
				<path style="fill:#F4451C;" d="M71.7,70.7c0,0-2-0.1-1.3-0.6C71.2,69.7,71.7,70.7,71.7,70.7z"></path>
			</g>
		</g>
		<g>
			<g>
				<path style="fill:#F4451C;" d="M71.3,71.2c0,0-2,0.6-1.8,0C69.7,70.6,71.3,71.2,71.3,71.2z"></path>
			</g>
		</g>
		<g>
			<g>
				<path style="fill:#F4451C;" d="M72.5,70.5c0,0-1.5-0.6-0.4-0.9C73.1,69.3,72.5,70.5,72.5,70.5z"></path>
			</g>
		</g>
	</g>
	<g>
		<g>
			<g>
				<path style="fill:#F4451C;" d="M70.2,73.9c0,0-1.3,1-1.8,0.5C68,74,70.2,73.9,70.2,73.9z"></path>
			</g>
		</g>
		<g>
			<g>
				<path style="fill:#F4451C;" d="M70.8,74.2c0,0-0.2,1.1-1.1,0.9C68.8,74.9,70.8,74.2,70.8,74.2z"></path>
			</g>
		</g>
		<g>
			<g>
				<path style="fill:#F4451C;" d="M70.3,73.5c0,0-2,0.6-1.8,0C68.6,72.9,70.3,73.5,70.3,73.5z"></path>
			</g>
		</g>
	</g>
	<g>
		<g>
			<g>
				<path style="fill:#F4451C;" d="M75.2,74.9c0,0,1.4,0.7,0.3,0.9C74.4,76,75.2,74.9,75.2,74.9z"></path>
			</g>
		</g>
		<g>
			<g>
				<path style="fill:#F4451C;" d="M75.9,74.5c0,0,2,0.1,1.3,0.6C76.4,75.6,75.9,74.5,75.9,74.5z"></path>
			</g>
		</g>
		<g>
			<g>
				<path style="fill:#F4451C;" d="M74.4,74.8c0,0,0.4,1-0.7,1C72.6,75.8,74.4,74.8,74.4,74.8z"></path>
			</g>
		</g>
	</g>
	<g>
		<g>
			<g>
				<path style="fill:#F4451C;" d="M79.8,72.3c0,0,2-0.6,1.8,0C81.5,72.8,79.8,72.3,79.8,72.3z"></path>
			</g>
		</g>
		<g>
			<g>
				<path style="fill:#F4451C;" d="M79.6,71.9c0,0,1.2-1.1,1.7-0.6C81.8,71.7,79.6,71.9,79.6,71.9z"></path>
			</g>
		</g>
		<g>
			<g>
				<path style="fill:#F4451C;" d="M79.3,72.7c0,0,2.1-0.1,1.4,0.5C80.1,73.7,79.3,72.7,79.3,72.7z"></path>
			</g>
		</g>
	</g>
	<g>
		<g>
			<g>
				<path style="fill:#F4451C;" d="M77.6,69.7c0,0,0-1.1,0.9-1C79.5,68.9,77.6,69.7,77.6,69.7z"></path>
			</g>
		</g>
		<g>
			<g>
				<path style="fill:#F4451C;" d="M76.7,69.7c0,0-1.2-0.8-0.1-1C77.7,68.5,76.7,69.7,76.7,69.7z"></path>
			</g>
		</g>
		<g>
			<g>
				<path style="fill:#F4451C;" d="M78.1,70c0,0,1.1-1.1,1.6-0.7C80.3,69.7,78.1,70,78.1,70z"></path>
			</g>
		</g>
	</g>
	<g style="opacity:0.5;">
		<g>
			<g>
				<g>
					<g>
						<g>
							<path style="fill:#DB3401;" d="M79.1,77c0,0-2.5,1.4-4.8,1.5c-2.4,0.1-7.1-0.5-6.7-1.2c0.4-0.6,3.5,0.4,5.6,0.5         C74.9,77.9,79.1,77,79.1,77z"></path>
						</g>
					</g>
				</g>
			</g>
		</g>
	</g>
	<g>
		<g>
			<path style="fill:#BD2D03;" d="M95.9,66.4c-0.5,2.8-5.3,4.4-10.8,3.5c-5.5-0.9-9.5-3.9-9.1-6.7c0.5-2.8,5.3-4.4,10.8-3.5     C92.3,60.6,96.4,63.6,95.9,66.4z"></path>
		</g>
	</g>
	<g>
		<g>
			<path style="fill:#DB3401;" d="M94.7,66.2c-0.4,2.5-4.6,3.8-9.4,3c-4.8-0.8-8.3-3.4-7.9-5.9c0.4-2.5,4.6-3.8,9.4-3     C91.5,61.1,95.1,63.8,94.7,66.2z"></path>
		</g>
	</g>
	<g>
		<g>
			<g>
				<path style="fill:#BD2D03;" d="M83.6,68.4c-1.3-0.2-1.8-0.8-1.1-1.3l2.2-1.5c0.7-0.5,1.7-0.3,2.2,0.4l1.6,2.1      c0.5,0.7-0.1,1.1-1.4,0.9L83.6,68.4z"></path>
			</g>
		</g>
		<g>
			<g>
				<path style="fill:#BD2D03;" d="M92.4,68c-0.5,0.6-1.6,0.5-2.4-0.1l-2.5-1.9c-0.8-0.6-0.4-1.1,0.9-1l4,0.3      c1.3,0.1,1.9,0.6,1.4,1.2L92.4,68z"></path>
			</g>
		</g>
		<g>
			<g>
				<path style="fill:#BD2D03;" d="M92.4,63.1c1,0.6,0.8,1.1-0.4,1.2l-3.8,0.3c-1.2,0.1-2-0.3-1.7-1l0.9-2c0.3-0.6,1.3-0.7,2.3-0.1      L92.4,63.1z"></path>
			</g>
		</g>
		<g>
			<g>
				<path style="fill:#BD2D03;" d="M83.5,60.6c1.1-0.2,2.1,0.2,2.1,0.8l0.2,2.1c0.1,0.7-0.8,0.8-1.9,0.4l-3.5-1.5      c-1.1-0.5-1.1-1,0-1.3L83.5,60.6z"></path>
			</g>
		</g>
		<g>
			<g>
				<path style="fill:#BD2D03;" d="M78.1,63.9c-0.3-0.7,0.5-1,1.7-0.7l3.9,1c1.2,0.3,1.5,0.9,0.5,1.2l-3,1c-1,0.3-2,0-2.3-0.7      L78.1,63.9z"></path>
			</g>
		</g>
	</g>
	<g>
		<g>
			<path style="fill:#DB3401;" d="M85.7,64.6c0,0-2.3-1-1.9-1.4c0.4-0.4,1.4,0.5,1.5,0.6C85.4,64,85.7,64.6,85.7,64.6z"></path>
		</g>
	</g>
	<g>
		<g>
			<path style="fill:#DB3401;" d="M85.1,64.9c0,0-2.3,0.8-2.9,0.1c-0.6-0.7,1.2-0.6,1.4-0.6C84,64.5,85.1,64.9,85.1,64.9z"></path>
		</g>
	</g>
	<g>
		<g>
			<path style="fill:#DB3401;" d="M85.9,64.9c0,0,1.1,1.5,0.1,1.6c-1.1,0.1-0.9-0.8-0.8-0.9C85.4,65.4,85.9,64.9,85.9,64.9z"></path>
		</g>
	</g>
	<g>
		<g>
			<path style="fill:#DB3401;" d="M87,65.2c0,0,2.9-0.2,3,0.6c0.1,0.7-1.6,0.2-1.8,0.2C87.7,65.7,87,65.2,87,65.2z"></path>
		</g>
	</g>
	<g>
		<g>
			<path style="fill:#DB3401;" d="M86.6,64.5c0,0,0.4-1.5,1.7-1.1c1.3,0.4,0,1-0.2,1C87.7,64.4,86.6,64.5,86.6,64.5z"></path>
		</g>
	</g>
	<g>
		<g>
			<g>
				<path style="fill:#F4451C;" d="M83.5,62.3c0,0-1.9-0.7-1-0.9C83.3,61.1,83.5,62.3,83.5,62.3z"></path>
			</g>
		</g>
		<g>
			<g>
				<path style="fill:#F4451C;" d="M83,62.6c0,0-2.1-0.1-1.7-0.6C81.6,61.5,83,62.6,83,62.6z"></path>
			</g>
		</g>
		<g>
			<g>
				<path style="fill:#F4451C;" d="M84.3,62.3c0,0-1.2-1.1-0.1-1C85.3,61.4,84.3,62.3,84.3,62.3z"></path>
			</g>
		</g>
	</g>
	<g>
		<g>
			<g>
				<path style="fill:#F4451C;" d="M81.1,64.8c0,0-1.6,0.5-1.8,0C79,64.2,81.1,64.8,81.1,64.8z"></path>
			</g>
		</g>
		<g>
			<g>
				<path style="fill:#F4451C;" d="M81.6,65.3c0,0-0.5,1-1.3,0.5C79.4,65.3,81.6,65.3,81.6,65.3z"></path>
			</g>
		</g>
		<g>
			<g>
				<path style="fill:#F4451C;" d="M81.3,64.4c0,0-2.1,0-1.7-0.5C79.9,63.4,81.3,64.4,81.3,64.4z"></path>
			</g>
		</g>
	</g>
	<g>
		<g>
			<g>
				<path style="fill:#F4451C;" d="M85.5,67.3c0,0,1.1,1.1,0,1C84.4,68.2,85.5,67.3,85.5,67.3z"></path>
			</g>
		</g>
		<g>
			<g>
				<path style="fill:#F4451C;" d="M86.3,67.2c0,0,1.9,0.7,1,0.9C86.4,68.4,86.3,67.2,86.3,67.2z"></path>
			</g>
		</g>
		<g>
			<g>
				<path style="fill:#F4451C;" d="M84.7,67c0,0,0,1.1-1,0.7C82.8,67.3,84.7,67,84.7,67z"></path>
			</g>
		</g>
	</g>
	<g>
		<g>
			<g>
				<path style="fill:#F4451C;" d="M90.7,66.3c0,0,2.1,0,1.8,0.5C92.2,67.4,90.7,66.3,90.7,66.3z"></path>
			</g>
		</g>
		<g>
			<g>
				<path style="fill:#F4451C;" d="M90.7,65.9c0,0,1.5-0.6,1.8,0C92.8,66.4,90.7,65.9,90.7,65.9z"></path>
			</g>
		</g>
		<g>
			<g>
				<path style="fill:#F4451C;" d="M90.1,66.6c0,0,2,0.6,1.2,0.9C90.5,67.7,90.1,66.6,90.1,66.6z"></path>
			</g>
		</g>
	</g>
	<g>
		<g>
			<g>
				<path style="fill:#F4451C;" d="M89.4,63.1c0,0,0.3-1.1,1.2-0.6C91.5,62.9,89.4,63.1,89.4,63.1z"></path>
			</g>
		</g>
		<g>
			<g>
				<path style="fill:#F4451C;" d="M88.6,62.9c0,0-0.9-1.1,0.2-0.9C89.9,62.1,88.6,62.9,88.6,62.9z"></path>
			</g>
		</g>
		<g>
			<g>
				<path style="fill:#F4451C;" d="M89.8,63.5c0,0,1.3-0.7,1.8-0.1C91.9,64,89.8,63.5,89.8,63.5z"></path>
			</g>
		</g>
	</g>
	<g>
		<g>
			<g>
				<g>
					<g>
						<g>
							<g>
								<g>
									<g>
										<path style="fill:#FFE138;" d="M62.3,69.1c0,1-1.1,1.8-2.5,1.8c-1.4,0-2.6-0.7-2.6-1.7c0-1,1.1-1.8,2.5-1.8            C61.1,67.3,62.3,68.1,62.3,69.1z"></path>
									</g>
								</g>
							</g>
						</g>
					</g>
				</g>
			</g>
		</g>
		<g>
			<g>
				<g>
					<g>
						<g>
							<g>
								<g>
									<g>
										<path style="fill:#D96500;" d="M61.6,69.2c0,0.8-1,1.5-2.2,1.6c-1.2,0-2.2-0.6-2.2-1.5c0-0.8,1-1.5,2.2-1.6            C60.6,67.7,61.6,68.4,61.6,69.2z"></path>
									</g>
								</g>
							</g>
						</g>
					</g>
				</g>
			</g>
		</g>
		<g>
			<g>
				<g>
					<g>
						<g>
							<g>
								<g>
									<g>
										<path style="fill:#FF9E03;" d="M61.5,69.4c0,0.7-0.8,1.3-1.9,1.4s-1.9-0.6-1.9-1.3c0-0.7,0.8-1.3,1.9-1.4            C60.7,68.1,61.5,68.7,61.5,69.4z"></path>
									</g>
								</g>
							</g>
						</g>
					</g>
				</g>
			</g>
		</g>
	</g>
	<g>
		<g>
			<g>
				<g>
					<g>
						<g>
							<g>
								<g>
									<g>
										<path style="fill:#FFE138;" d="M53.5,68.2c-0.2,0.5-1.1,0.6-1.9,0.1c-0.8-0.4-1.3-1.2-1-1.8c0.2-0.5,1.1-0.6,1.9-0.1            C53.3,66.9,53.8,67.6,53.5,68.2z"></path>
									</g>
								</g>
							</g>
						</g>
					</g>
				</g>
			</g>
		</g>
		<g>
			<g>
				<g>
					<g>
						<g>
							<g>
								<g>
									<g>
										<path style="fill:#D96500;" d="M53.1,68c-0.2,0.4-0.9,0.5-1.6,0.1c-0.7-0.4-1.1-1.1-0.9-1.5c0.2-0.4,0.9-0.5,1.6-0.1            C52.9,66.9,53.3,67.6,53.1,68z"></path>
									</g>
								</g>
							</g>
						</g>
					</g>
				</g>
			</g>
		</g>
		<g>
			<g>
				<g>
					<g>
						<g>
							<g>
								<g>
									<g>
										<path style="fill:#FF9E03;" d="M53,68.1c-0.2,0.4-0.8,0.4-1.4,0.1c-0.6-0.3-1-0.9-0.8-1.3c0.2-0.4,0.8-0.4,1.4-0.1            C52.8,67.1,53.2,67.7,53,68.1z"></path>
									</g>
								</g>
							</g>
						</g>
					</g>
				</g>
			</g>
		</g>
	</g>
	<path style="fill:#CF5800;" d="M96.4,69.7c-1.1,0-1.9-1-1.9-2c0-1.1,1-1.9,2-1.9c0,0,0,0,0,0c-0.5-1.9-1.3-3.9-2.4-5.8   c-3-5.3-5-7.6-5-7.6l-20-4c0,0-20.3,6.2-25.7,8.6c-2.3,1.1-3.1,2.3-1.9,7.3c1.4,6.2,5,12.3,5,12.3l3.6-0.2c0,0-0.1-2.2,2.1-2.5   c2-0.2,2,1.4,2.3,2c5.1-0.4,26.9-4.8,32.4-3.4c6.4,1.6,10.8,1.4,10.8,1.4c0-0.7-0.1-2.2-0.4-4.4C97.1,69.6,96.8,69.7,96.4,69.7z"></path>
	<path style="fill:#F4BE31;" d="M96.4,68.9c-1.1,0-1.9-1-1.9-2c0-1.1,1-1.9,2-1.9c0,0,0,0,0,0c-0.5-1.9-1.3-3.9-2.4-5.8   c-3-5.3-5-7.6-5-7.6l-20-4c0,0-20.3,6.2-25.7,8.6c-2.3,1.1-3.1,2.3-1.9,7.3c1.4,6.2,5,12.3,5,12.3l3.6-0.2c0,0-0.1-2.2,2.1-2.5   c2-0.2,2,1.4,2.3,2c5.1-0.4,26.9-4.8,32.4-3.4c6.4,1.6,10.8,1.4,10.8,1.4c-0.1-1.5-0.2-2.9-0.4-4.4C97,68.8,96.7,68.9,96.4,68.9z"></path>
	<g>
		<g>
			<g>
				<g>
					<g>
						<g>
							<g>
								<g>
									<g>
										<path style="fill:#FFE138;" d="M92.1,67c0.2,0.7-0.5,1.6-1.6,1.9c-1.1,0.3-2.2,0.1-2.4-0.6c-0.2-0.7,0.5-1.6,1.6-1.9            C90.8,66,91.8,66.3,92.1,67z"></path>
									</g>
								</g>
							</g>
						</g>
					</g>
				</g>
			</g>
		</g>
		<g>
			<g>
				<g>
					<g>
						<g>
							<g>
								<g>
									<g>
										<path style="fill:#D96500;" d="M91.5,67.2c0.2,0.6-0.4,1.3-1.4,1.6c-1,0.3-1.9,0.1-2.1-0.5c-0.2-0.6,0.4-1.3,1.4-1.6            C90.4,66.4,91.4,66.6,91.5,67.2z"></path>
									</g>
								</g>
							</g>
						</g>
					</g>
				</g>
			</g>
		</g>
		<g>
			<g>
				<g>
					<g>
						<g>
							<g>
								<g>
									<g>
										<path style="fill:#FF9E03;" d="M91.5,67.4c0.2,0.5-0.4,1.2-1.2,1.4c-0.8,0.3-1.6,0-1.8-0.5c-0.2-0.5,0.4-1.2,1.2-1.4            C90.6,66.7,91.4,66.9,91.5,67.4z"></path>
									</g>
								</g>
							</g>
						</g>
					</g>
				</g>
			</g>
		</g>
	</g>
	<g>
		<g>
			<g>
				<g>
					<g>
						<g>
							<g>
								<g>
									<g>
										<path style="fill:#FFE138;" d="M48.9,70.2c0.2,0.6-0.4,1.3-1.4,1.6c-0.9,0.3-1.9,0.1-2-0.5c-0.2-0.6,0.4-1.3,1.4-1.6            C47.8,69.4,48.7,69.6,48.9,70.2z"></path>
									</g>
								</g>
							</g>
						</g>
					</g>
				</g>
			</g>
		</g>
		<g>
			<g>
				<g>
					<g>
						<g>
							<g>
								<g>
									<g>
										<path style="fill:#D96500;" d="M48.4,70.4c0.2,0.5-0.4,1.1-1.2,1.4c-0.8,0.3-1.6,0-1.7-0.5c-0.2-0.5,0.4-1.1,1.2-1.4            C47.5,69.7,48.3,69.9,48.4,70.4z"></path>
									</g>
								</g>
							</g>
						</g>
					</g>
				</g>
			</g>
		</g>
		<g>
			<g>
				<g>
					<g>
						<g>
							<g>
								<g>
									<g>
										<path style="fill:#FF9E03;" d="M48.4,70.5c0.1,0.4-0.3,1-1,1.2c-0.7,0.2-1.4,0-1.5-0.4c-0.1-0.4,0.3-1,1-1.2            S48.3,70.1,48.4,70.5z"></path>
									</g>
								</g>
							</g>
						</g>
					</g>
				</g>
			</g>
		</g>
	</g>
	<path style="fill:#E58619;" d="M39.5,63.7c0.8,1.9,6.2,2.9,13.1,5.6c7.2,2.9,9.7,6.3,15.9,6.3c4.8,0,24.3-13.4,27-15.3   c1.1-0.8,1.2-6,0.6-6.7c-1.2-1.5-8-2.7-13.1-4.3c-6-1.8-9-2.6-13.3-2c-3.4,0.5-23.3,6.3-30.1,11C38.4,59,38.8,62,39.5,63.7z"></path>
	<path style="fill:#C36202;" d="M68.6,70.3c-0.3,2-2,4-3.7,4.9c2.1,0.7,3.4,0.9,5.1,0.3c3-1.1,10.9-5.7,13.9-7.6   c2.7-1.8,10.8-6.1,11.4-7.6c0.9-2,1-5.8,0.6-6.7c-1.7,4-7.7,5.7-11.3,7.5C79.8,63.5,68.6,70.3,68.6,70.3z"></path>
	<path style="fill:#C56203;" d="M63.8,48.2c0,0-24.8,7.1-24.8,10.5c0,2.6,7.4,3.5,14.3,6.2c7.2,2.9,9.7,6.3,15.9,6.3   c4.8,0,21.6-12.5,21.6-12.5s3.8-0.4,5-2.5c1.2-2.1,0.1-3.1-2.4-4.4c-3.2-1.6-4.8-2-9.9-3.6c-6-1.8-10.6-3.2-14.9-2.6   C64.3,46.2,63.8,48.2,63.8,48.2z"></path>
	<path style="fill:#F5DD7F;" d="M64.5,48.5c0,0-24,7-24,10.1c0,2.4,7.1,3.3,13.5,5.8c6.7,2.7,9.1,5.9,14.8,5.9   c4.4,0,21.4-12.2,21.4-12.2s3.5-0.3,4.6-2.3c1.2-2.1,0.1-2.7-2.5-4c-3-1.5-4.7-1.9-9.5-3.3c-5.6-1.7-9.9-3-13.9-2.4   C64.9,46.7,64.5,48.5,64.5,48.5z"></path>
	<path style="opacity:0.7;fill:#FBBA56;" d="M92.3,51.8c-3-1.5-4.7-1.9-9.5-3.3c-5.6-1.7-9.9-3-13.9-2.4c-1.6,0.2-2.6,0.7-3.3,1.1   c1.4,0.4,10.1,0.9,16,4.6c4.2,2.7,2.7,10.3-17.9,17.6c0,0,2.1,0.9,5,0.9c4.4,0,21.4-12.2,21.4-12.2s3.5-0.3,4.6-2.3   C96,53.7,94.9,53.1,92.3,51.8z"></path>
	<path style="fill:#FBBA56;" d="M50.6,57.1c0,0.3-0.4,0.6-0.9,0.6s-0.9-0.3-0.9-0.6c0-0.3,0.4-0.6,0.9-0.6S50.6,56.8,50.6,57.1z"></path>
	<path style="fill:#FBBA56;" d="M54.2,60.3c0,0.3-0.3,0.5-0.7,0.5c-0.4,0-0.7-0.2-0.7-0.5c0-0.3,0.3-0.5,0.7-0.5   C53.9,59.8,54.2,60,54.2,60.3z"></path>
	<path style="fill:#FBBA56;" d="M67.9,51.3c-0.1,0.3-0.6,0.4-1,0.2c-0.4-0.2-0.7-0.6-0.6-0.9c0.1-0.3,0.6-0.4,1-0.2   C67.8,50.6,68,51,67.9,51.3z"></path>
	<path style="fill:#FBBA56;" d="M68.5,57.8c-0.1,0.2-0.4,0.3-0.7,0.1c-0.3-0.1-0.5-0.4-0.4-0.6c0.1-0.2,0.4-0.3,0.7-0.1   C68.4,57.3,68.6,57.6,68.5,57.8z"></path>
	<path style="fill:#FBBA56;" d="M59.8,51.6c0,0.3-0.3,0.5-0.7,0.5s-0.7-0.2-0.7-0.5s0.3-0.5,0.7-0.5S59.8,51.3,59.8,51.6z"></path>
	<path style="fill:#FBBA56;" d="M66.1,66c0,0.3-0.3,0.5-0.7,0.5c-0.4,0-0.7-0.2-0.7-0.5s0.3-0.5,0.7-0.5   C65.8,65.5,66.1,65.7,66.1,66z"></path>
	<path style="fill:#FBBA56;" d="M80.3,58.3c0,0.3-0.3,0.5-0.7,0.5c-0.4,0-0.7-0.2-0.7-0.5c0-0.3,0.3-0.5,0.7-0.5   C79.9,57.8,80.3,58,80.3,58.3z"></path>
	<path style="fill:#FBBA56;" d="M73,60.8c0,0.2-0.3,0.4-0.6,0.4c-0.3,0-0.6-0.2-0.6-0.4c0-0.2,0.3-0.4,0.6-0.4   C72.8,60.4,73,60.6,73,60.8z"></path>
	<path style="fill:#FBBA56;" d="M64.3,58.9c0,0.2-0.3,0.4-0.7,0.4c-0.4,0-0.7-0.2-0.7-0.4c0-0.2,0.3-0.4,0.7-0.4   C64,58.5,64.3,58.7,64.3,58.9z"></path>
	<path style="fill:#FBBA56;" d="M88.8,54.9c0,0.2-0.3,0.4-0.7,0.4c-0.4,0-0.7-0.2-0.7-0.4c0-0.2,0.3-0.4,0.7-0.4   C88.5,54.5,88.8,54.7,88.8,54.9z"></path>
	<path style="fill:#FBBA56;" d="M79.5,49.9c0,0.2-0.3,0.4-0.7,0.4c-0.4,0-0.7-0.2-0.7-0.4c0-0.2,0.3-0.4,0.7-0.4   C79.2,49.4,79.5,49.6,79.5,49.9z"></path>
	<path style="fill:#FBBA56;" d="M75.8,52c0,0.2-0.3,0.4-0.7,0.4c-0.4,0-0.7-0.2-0.7-0.4c0-0.2,0.3-0.4,0.7-0.4   C75.5,51.6,75.8,51.8,75.8,52z"></path>
	<path style="fill:#FBBA56;" d="M59,64.8c0,0.2-0.3,0.4-0.6,0.4c-0.3,0-0.6-0.2-0.6-0.4c0-0.2,0.3-0.4,0.6-0.4   C58.7,64.4,59,64.6,59,64.8z"></path>
	<path style="fill:#FBBA56;" d="M58.4,56.5c0,0.2-0.3,0.4-0.6,0.4c-0.3,0-0.6-0.2-0.6-0.4c0-0.2,0.3-0.4,0.6-0.4   C58.2,56.1,58.4,56.3,58.4,56.5z"></path>
	<path style="fill:#FBBA56;" d="M43.8,58.5c0,0.2-0.3,0.4-0.6,0.4c-0.3,0-0.6-0.2-0.6-0.4c0-0.2,0.3-0.4,0.6-0.4   C43.5,58.1,43.8,58.3,43.8,58.5z"></path>
	<path style="fill:#FBBA56;" d="M76.9,61.2c0,0.2-0.3,0.4-0.6,0.4c-0.3,0-0.6-0.2-0.6-0.4c0-0.2,0.3-0.4,0.6-0.4   C76.7,60.8,76.9,61,76.9,61.2z"></path>
	<path style="fill:#FBBA56;" d="M81.7,49.9c0,0.2-0.3,0.4-0.6,0.4c-0.3,0-0.6-0.2-0.6-0.4c0-0.2,0.3-0.4,0.6-0.4   C81.4,49.5,81.7,49.7,81.7,49.9z"></path>
	<path style="fill:#E58619;" d="M66.6,49.8c-2.8,1.9,1.6,4.2,2.7,1c-0.4-0.6-1-0.9-1.7-1H66.6z"></path>
	<path style="fill:#E58619;" d="M79.7,55.4c-2.1,1-1.3,3.5,1,3c2-0.4,2.1-3.2-0.3-3H79.7z"></path>
	<path style="fill:#E58619;" d="M59.3,54.1c-0.2,1.7-0.7,4.6,4.9,7.3c3.9,1.9,12.3,1.4,15.7-0.6C76.8,65,67,64.9,62.9,63   c-4-1.9-5-5.1-5.1-8C57.8,52.5,59.3,53.6,59.3,54.1z"></path>
	<path style="fill:#C36202;" d="M67.2,50.1c-1.9,1.3,1.1,2.9,1.9,0.7c-0.3-0.4-0.7-0.6-1.2-0.7H67.2z"></path>
	<path style="fill:#C36202;" d="M80.1,56c-1.9,1.3,1.1,2.9,1.9,0.7c-0.3-0.4-0.7-0.6-1.2-0.7H80.1z"></path>
	<g>
		<path style="fill:#C36202;" d="M58.9,54.1c-0.2,1.7,0.1,5.3,5.6,8c3.9,1.9,12.3,0.6,15.7-1.4c-3.1,3-12.9,3.6-17,1.7    c-4-1.9-5-3.6-5.1-6.5C58,53.5,58.9,53.6,58.9,54.1z"></path>
	</g>
	<g>
		<path style="fill:#C8011E;" d="M29.6,84.8c3.7,6.2,12.2,7.9,18.8,3.8c6.7-4,9-12.3,5.3-18.5C50,64,41.5,62.3,34.9,66.4    C28.2,70.4,25.8,78.7,29.6,84.8z"></path>
		<path style="fill:#A30429;" d="M43.2,64.2c-2.4,0.4-2.3,2.9-1,3.8c1,0.8,4.3,0.1,6.7,3.9c2,3.4,2.5,7.1-1.2,12    c-2.6,3.5-7.4,5.5-13,4.3c-2.9-0.6-3.8-1.6-4.3-2.1c4,5.2,11.8,6.4,18,2.7c6.7-4,9-12.3,5.3-18.5c-0.8-1.4-1.9-2.5-3.1-3.4    C49.4,65.9,45.8,64.1,43.2,64.2z"></path>
		<path style="opacity:0.3;fill:#3E6B12;" d="M38.1,71.6c-1.4,1.4-4.1,3-4.8,0.1c-0.6-2.7,3.7-6.7,6.4-5.9    C41.4,66.4,40.2,69.5,38.1,71.6z"></path>
		<path style="fill:#E5393B;" d="M28.6,83c-2.3-5.8,0.1-12.8,6-16.5c-0.8,1.5-5.2,6.6-1,8.1c3.6,1.3,6.5-2.8,8.2-3    c1.7-0.2,3.1,0.9,3.7,1.8c1.4,2.2,1.2,6.7-2.9,10C38.8,86.3,31.8,86.3,28.6,83z"></path>
		<path style="fill:#600606;" d="M36.6,69.8c-0.4,0.4-1.3,0.9-1.5,0.1c-0.2-0.8,1.2-2,2.1-1.8C37.8,68.2,37.3,69.2,36.6,69.8z"></path>
		<path style="fill:#7C201E;" d="M36.6,69.8c0,0-2.1-2.1-2.7-4.1c-0.7-2.4,0.9-3.4,0.9-3.4L32.4,62c0,0-0.9,1.6-0.5,3.3    c0.6,2.8,4.4,4.8,4.4,4.8L36.6,69.8z"></path>
		<g style="opacity:0.5;">
			<g>
				<g>
					<g>
						<g>
							<g>
								<path style="fill:#FFFFFF;" d="M32.6,77c0.8,0.6,1,1.7,0.5,2.4c-0.5,0.8-1.6,0.9-2.4,0.3c-0.8-0.6-1-1.7-0.5-2.4          C30.7,76.6,31.8,76.5,32.6,77z"></path>
							</g>
						</g>
					</g>
				</g>
			</g>
		</g>
		<g style="opacity:0.5;">
			<g>
				<g>
					<g>
						<g>
							<g>
								<path style="fill:#FFFFFF;" d="M34.9,78.8c0.4,0.3,0.5,0.8,0.2,1.1c-0.2,0.4-0.8,0.4-1.1,0.1c-0.4-0.3-0.5-0.8-0.2-1.1          C34,78.6,34.5,78.5,34.9,78.8z"></path>
							</g>
						</g>
					</g>
				</g>
			</g>
		</g>
		<path style="fill:#E5393B;" d="M35.7,73.2C35.7,73.2,35.7,73.2,35.7,73.2c0.2-0.1,0.3-0.1,0.4-0.2c0.2-0.1,0.5-0.3,0.9-0.5    c0.2-0.1,0.4-0.3,0.5-0.4c0.2-0.2,0.4-0.3,0.6-0.5c0.2-0.2,0.4-0.4,0.5-0.6c0.2-0.2,0.3-0.4,0.5-0.7l0.1-0.2    c0-0.1,0.1-0.1,0.1-0.2c0.1-0.1,0.1-0.2,0.2-0.4c0.1-0.1,0.1-0.2,0.2-0.4c0-0.1,0.1-0.1,0.1-0.2c0-0.1,0.1-0.1,0.1-0.2    c0.1-0.2,0.2-0.5,0.3-0.7c0.1-0.2,0.1-0.5,0.2-0.7c0-0.2,0.1-0.4,0.1-0.6c0-0.2,0-0.3,0-0.4c0-0.1-0.1-0.2-0.1-0.3    c0-0.1-0.1-0.1-0.1-0.1s0,0,0.1,0.1c0,0.1,0.1,0.1,0.2,0.3c0.1,0.1,0.1,0.3,0.1,0.5c0,0.2,0,0.4,0,0.6c0,0.2,0,0.5-0.1,0.7    c-0.1,0.3-0.1,0.5-0.2,0.8c0,0.1,0,0.1-0.1,0.2c0,0.1,0,0.1-0.1,0.2c-0.1,0.1-0.1,0.3-0.2,0.4c-0.1,0.3-0.3,0.5-0.4,0.8    c-0.2,0.3-0.3,0.5-0.5,0.7c-0.2,0.2-0.4,0.4-0.6,0.6c-0.2,0.2-0.4,0.4-0.6,0.5c-0.2,0.1-0.4,0.3-0.6,0.4c-0.2,0.1-0.4,0.2-0.6,0.2    c-0.2,0.1-0.3,0.1-0.4,0.1c-0.1,0-0.2,0-0.3,0.1C35.7,73.2,35.7,73.2,35.7,73.2z"></path>
		<path style="fill:#600606;" d="M36.6,69.7c0,0-2.1-2.1-2.7-4.1c-0.7-2.4,0.9-3.4,0.9-3.4l-1.3-0.1c0,0-0.9,1.6-0.5,3.3    c0.6,2.8,3.3,4.5,3.3,4.5L36.6,69.7z"></path>
	</g>
	<g>
		<g>
			<g>
				<path style="fill:#FFBD33;" d="M29.4,67.6c0,0-1.6-4.4-4.1-5.6c-2.2-1-4.9-0.7-6.8,0.2c-1.1,0.5-3.6,1-3.6,1s0.3,0.3,0.9,1.6      c1,2.2,0.7,3.6,3.7,5.3c1.9,1.1,4.9,1.5,8.5-1.1C29.3,68.2,29.4,67.6,29.4,67.6z"></path>
			</g>
		</g>
		<g style="opacity:0.3;">
			<g>
				<path style="fill:#BB362E;" d="M29.4,67.6c0,0-3.5,0.1-7-0.9c-3.3-1-7.4-3.5-7.4-3.5s0.3,0.3,0.9,1.6c1,2.2,0.7,3.6,3.7,5.3      c1.9,1.1,4.9,1.5,8.5-1.1C29.3,68.2,29.4,67.6,29.4,67.6z"></path>
			</g>
		</g>
		<path style="fill:#7C201E;" d="M35.5,69.9C35.5,69.9,35.5,69.8,35.5,69.9c-0.1,0-0.1-0.1-0.2-0.1c-0.1-0.1-0.3-0.2-0.6-0.3    c-0.5-0.3-1.3-0.6-2.3-0.9c-1-0.3-2.1-0.6-3.4-0.8c-0.6-0.1-1.3-0.1-2-0.1c-0.2,0-0.3,0-0.5,0c-0.2,0-0.3,0-0.5,0    c-0.2,0-0.3,0-0.5,0c-0.1,0-0.2,0-0.3,0c-0.1,0-0.2,0-0.3,0c-0.3,0-0.7-0.1-1-0.1c-0.3-0.1-0.7-0.1-1-0.2    c-0.7-0.2-1.3-0.4-1.9-0.7c-0.6-0.3-1.2-0.5-1.7-0.8c-0.5-0.3-1-0.6-1.5-0.8c-0.9-0.5-1.6-0.9-2.2-1.2c-0.3-0.1-0.5-0.3-0.6-0.3    C15,63.2,15,63.2,15,63.2s0.1,0,0.2,0.1c0.1,0.1,0.4,0.2,0.6,0.3c0.5,0.3,1.3,0.7,2.2,1.2c0.5,0.2,1,0.5,1.5,0.8    c0.5,0.3,1.1,0.5,1.7,0.8c0.6,0.2,1.2,0.4,1.9,0.6c0.3,0.1,0.7,0.1,1,0.2c0.3,0,0.7,0.1,1,0.1c0.1,0,0.2,0,0.3,0    c0.1,0,0.2,0,0.3,0c0.2,0,0.3,0,0.5,0c0.2,0,0.3,0,0.5,0c0.2,0,0.3,0,0.5,0c0.7,0,1.4,0,2,0.1c1.3,0.1,2.5,0.4,3.5,0.7    c1,0.3,1.8,0.6,2.4,0.9c0.3,0.1,0.5,0.2,0.6,0.3c0.1,0,0.1,0.1,0.2,0.1c0,0,0.1,0,0.1,0L35.5,69.9z"></path>
		<g style="opacity:0.5;">
			<path style="fill:#600606;" d="M26.7,67.3C26.7,67.3,26.6,67.2,26.7,67.3c-0.1-0.1-0.1-0.2-0.1-0.2c-0.1-0.2-0.2-0.4-0.4-0.6     c-0.2-0.3-0.3-0.6-0.6-0.9c-0.1-0.2-0.2-0.3-0.4-0.5c-0.1-0.2-0.3-0.3-0.4-0.5c-0.1-0.1-0.1-0.2-0.2-0.2     c-0.1-0.1-0.1-0.1-0.2-0.2c-0.1-0.1-0.3-0.3-0.4-0.4c-0.1-0.1-0.3-0.2-0.4-0.3c-0.1-0.1-0.1-0.1-0.2-0.2c-0.1,0-0.1-0.1-0.2-0.1     c-0.1-0.1-0.2-0.2-0.4-0.2c-0.1-0.1-0.2-0.1-0.3-0.2c-0.2-0.1-0.3-0.1-0.3-0.1s0.1,0,0.3,0.1c0.1,0,0.2,0.1,0.3,0.1     c0.1,0.1,0.2,0.1,0.4,0.2c0.1,0,0.1,0.1,0.2,0.1c0.1,0,0.1,0.1,0.2,0.1c0.1,0.1,0.3,0.2,0.5,0.3c0.2,0.1,0.3,0.2,0.5,0.4     c0.1,0.1,0.2,0.1,0.2,0.2c0.1,0.1,0.2,0.1,0.2,0.2c0.1,0.1,0.3,0.3,0.4,0.4c0.1,0.2,0.3,0.3,0.4,0.4c0.2,0.3,0.5,0.6,0.6,0.8     c0.2,0.3,0.3,0.5,0.4,0.6c0,0.1,0.1,0.1,0.1,0.2c0,0,0,0.1,0,0.1L26.7,67.3z"></path>
		</g>
		<g style="opacity:0.5;">
			<path style="fill:#600606;" d="M23.9,67.2C23.9,67.2,23.9,67.3,23.9,67.2c-0.1,0.1-0.2,0.1-0.2,0.2c-0.1,0.1-0.2,0.1-0.3,0.2     c-0.1,0.1-0.2,0.2-0.4,0.2c-0.1,0.1-0.3,0.2-0.5,0.3c-0.2,0.1-0.4,0.2-0.5,0.2c0,0-0.1,0-0.1,0c0,0-0.1,0-0.2,0     c-0.1,0-0.2,0.1-0.3,0.1c-0.2,0-0.4,0.1-0.6,0.1c-0.2,0-0.4,0-0.6-0.1c-0.1,0-0.1,0-0.2,0c-0.1,0-0.1,0-0.2,0     c-0.1,0-0.2-0.1-0.3-0.1c-0.1,0-0.2-0.1-0.3-0.1c-0.1,0-0.2-0.1-0.3-0.1c0,0-0.1,0-0.1-0.1c0,0-0.1-0.1-0.1-0.1     c0,0-0.1,0-0.1-0.1c0,0,0,0-0.1,0c0,0,0,0,0,0c-0.1-0.1-0.2-0.2-0.3-0.3c-0.1-0.1-0.2-0.2-0.2-0.2c-0.1-0.1-0.2-0.2-0.2-0.2     s0.1,0.1,0.2,0.2c0.1,0.1,0.2,0.1,0.3,0.2c0.1,0.1,0.2,0.2,0.3,0.3c0,0,0,0,0,0c0,0,0,0,0.1,0c0,0,0.1,0,0.1,0.1     c0,0,0.1,0,0.1,0.1c0,0,0.1,0,0.1,0.1c0.1,0,0.2,0.1,0.3,0.1c0.1,0,0.2,0.1,0.3,0.1c0.1,0,0.2,0.1,0.3,0.1c0,0,0.1,0,0.1,0     c0,0,0.1,0,0.2,0c0.2,0,0.4,0,0.6,0c0.2,0,0.4,0,0.6-0.1c0.1,0,0.2-0.1,0.3-0.1c0,0,0.1,0,0.1,0c0,0,0.1,0,0.1-0.1     c0.2-0.1,0.4-0.2,0.5-0.2c0.2-0.1,0.3-0.2,0.4-0.3c0.1-0.1,0.2-0.2,0.3-0.3c0.1-0.1,0.2-0.2,0.2-0.2c0.1-0.1,0.1-0.1,0.2-0.1     c0,0,0-0.1,0-0.1L23.9,67.2z"></path>
		</g>
	</g>
</g>
</svg>