<svg xmlns="http://www.w3.org/2000/svg" xmlns:xlink="http://www.w3.org/1999/xlink" x="0px" y="0px" viewBox="0 0 100 100" style="enable-background:new 0 0 100 100;" xml:space="preserve">
<path style="opacity:0.4;fill-rule:evenodd;clip-rule:evenodd;fill:#F7DB95;" d="M2.5,73.5c0,0,0.6-11.4,6.9-16.1  c0,0,4-4.7,18.6-1.7c0,0,23,3.4,25-23.3c0,0,3.4-10.2,9.3-18.1C68.6,6.3,78,4.4,89,13.6c0,0,12.5,11,7.2,33c0,0-0.8,15.6-22.2,24.4  c0,0-7.8,0.7-16.7,8.1c0,0-10.6,12.5-33.3,13.4C23.9,92.5,5,92.6,2.5,73.5z"></path>
<g>
	<g>
		<path style="fill:#797085;" d="M11.4,82.5c-0.8,0.1-1.6-0.5-1.7-1.4L1.5,31.1c-0.1-0.9,0.4-1.7,1.2-1.9l52.3-8.6    c0.8-0.1,1.6,0.5,1.7,1.4L64.9,72c0.1,0.9-0.4,1.7-1.2,1.9L11.4,82.5z"></path>
	</g>
	<g>
		<path style="fill:#FFF2E9;" d="M16.2,75.2c-0.8,0.1-1.6-0.6-1.7-1.6L7.7,32.7c-0.2-1,0.3-2,1.1-2.1L49.4,24    c0.8-0.1,1.6,0.6,1.7,1.6l6.7,40.8c0.2,1-0.3,2-1.1,2.1L16.2,75.2z"></path>
	</g>
	<g>
		<g>
			<path style="fill:#FAFAFF;" d="M51,24.7c-0.9,0.1-1.7-0.4-1.8-1.3c-0.1-0.9,0.4-1.7,1.3-1.8c0.9-0.1,1.7,0.4,1.8,1.3     C52.4,23.7,51.8,24.5,51,24.7z"></path>
		</g>
		<g>
			<path style="fill:#FAFAFF;" d="M44.8,25.7c-0.9,0.1-1.7-0.4-1.8-1.3c-0.1-0.9,0.4-1.7,1.3-1.8c0.9-0.1,1.7,0.4,1.8,1.3     C46.2,24.7,45.6,25.5,44.8,25.7z"></path>
		</g>
		<g>
			<path style="fill:#FAFAFF;" d="M38.6,26.7c-0.9,0.1-1.7-0.4-1.8-1.3c-0.1-0.9,0.4-1.7,1.3-1.8c0.9-0.1,1.7,0.4,1.8,1.3     C40,25.7,39.4,26.5,38.6,26.7z"></path>
		</g>
		<g>
			<path style="fill:#FAFAFF;" d="M32.4,27.7c-0.9,0.1-1.7-0.4-1.8-1.3c-0.1-0.9,0.4-1.7,1.3-1.8c0.9-0.1,1.7,0.4,1.8,1.3     C33.8,26.7,33.2,27.5,32.4,27.7z"></path>
		</g>
		<g>
			<path style="fill:#FAFAFF;" d="M26.2,28.7c-0.9,0.1-1.7-0.4-1.8-1.3c-0.1-0.9,0.4-1.7,1.3-1.8c0.9-0.1,1.7,0.4,1.8,1.3     C27.6,27.7,27,28.5,26.2,28.7z"></path>
		</g>
		<g>
			<path style="fill:#FAFAFF;" d="M20,29.7c-0.9,0.1-1.7-0.4-1.8-1.3c-0.1-0.9,0.4-1.7,1.3-1.8c0.9-0.1,1.7,0.4,1.8,1.3     C21.4,28.7,20.8,29.5,20,29.7z"></path>
		</g>
		<g>
			<path style="fill:#FAFAFF;" d="M13.7,30.7c-0.9,0.1-1.7-0.4-1.8-1.3c-0.1-0.9,0.4-1.7,1.3-1.8c0.9-0.1,1.7,0.4,1.8,1.3     C15.2,29.7,14.6,30.5,13.7,30.7z"></path>
		</g>
		<g>
			<path style="fill:#FAFAFF;" d="M7.5,31.7c-0.9,0.1-1.7-0.4-1.8-1.3s0.4-1.7,1.3-1.8c0.9-0.1,1.7,0.4,1.8,1.3     C9,30.7,8.4,31.5,7.5,31.7z"></path>
		</g>
	</g>
	<g>
		<g>
			<path style="fill:#1E2222;" d="M50.8,23.7c-0.6,0.1-1.1-0.2-1.2-0.7L49,19.5c-0.1-0.5,0.3-1,0.9-1.1l0,0c0.6-0.1,1.1,0.2,1.2,0.7     l0.6,3.5C51.8,23.1,51.4,23.6,50.8,23.7L50.8,23.7z"></path>
		</g>
		<g>
			<path style="fill:#1E2222;" d="M44.6,24.7c-0.6,0.1-1.1-0.2-1.2-0.7l-0.6-3.5c-0.1-0.5,0.3-1,0.9-1.1l0,0     c0.6-0.1,1.1,0.2,1.2,0.7l0.6,3.5C45.6,24.2,45.2,24.6,44.6,24.7L44.6,24.7z"></path>
		</g>
		<g>
			<path style="fill:#1E2222;" d="M38.4,25.8c-0.6,0.1-1.1-0.2-1.2-0.7l-0.6-3.5c-0.1-0.5,0.3-1,0.9-1.1l0,0     c0.6-0.1,1.1,0.2,1.2,0.7l0.6,3.5C39.4,25.2,39,25.7,38.4,25.8L38.4,25.8z"></path>
		</g>
		<g>
			<path style="fill:#1E2222;" d="M32.2,26.8c-0.6,0.1-1.1-0.2-1.2-0.7l-0.6-3.5c-0.1-0.5,0.3-1,0.9-1.1l0,0     c0.6-0.1,1.1,0.2,1.2,0.7l0.6,3.5C33.2,26.2,32.8,26.7,32.2,26.8L32.2,26.8z"></path>
		</g>
		<g>
			<path style="fill:#1E2222;" d="M26,27.8c-0.6,0.1-1.1-0.2-1.2-0.7l-0.6-3.5c-0.1-0.5,0.3-1,0.9-1.1l0,0c0.6-0.1,1.1,0.2,1.2,0.7     l0.6,3.5C27,27.2,26.6,27.7,26,27.8L26,27.8z"></path>
		</g>
		<g>
			<path style="fill:#1E2222;" d="M19.8,28.8c-0.6,0.1-1.1-0.2-1.2-0.7L18,24.6c-0.1-0.5,0.3-1,0.9-1.1l0,0c0.6-0.1,1.1,0.2,1.2,0.7     l0.6,3.5C20.8,28.2,20.4,28.7,19.8,28.8L19.8,28.8z"></path>
		</g>
		<g>
			<path style="fill:#1E2222;" d="M13.6,29.8c-0.6,0.1-1.1-0.2-1.2-0.7l-0.6-3.5c-0.1-0.5,0.3-1,0.9-1.1l0,0     c0.6-0.1,1.1,0.2,1.2,0.7l0.6,3.5C14.6,29.3,14.2,29.7,13.6,29.8L13.6,29.8z"></path>
		</g>
		<g>
			<path style="fill:#1E2222;" d="M7.4,30.9c-0.6,0.1-1.1-0.2-1.2-0.7l-0.6-3.5c-0.1-0.5,0.3-1,0.9-1.1l0,0c0.6-0.1,1.1,0.2,1.2,0.7     l0.6,3.5C8.4,30.3,8,30.8,7.4,30.9L7.4,30.9z"></path>
		</g>
	</g>
	<g style="opacity:0.5;">
		<g>
			<polygon style="fill:#C6794D;" points="8.3,36.5 8.2,36.4 51.6,29.2 51.7,29.4    "></polygon>
		</g>
		<g>
			
				<rect x="8.6" y="36.7" transform="matrix(0.9868 -0.1618 0.1618 0.9868 -5.539 5.4356)" style="fill:#C6794D;" width="44" height="0.1"></rect>
		</g>
		<g>
			
				<rect x="9.2" y="40.5" transform="matrix(0.9868 -0.1618 0.1618 0.9868 -6.1496 5.5863)" style="fill:#C6794D;" width="44" height="0.1"></rect>
		</g>
		<g>
			<polygon style="fill:#C6794D;" points="10.2,48 10.2,47.9 53.6,40.8 53.6,40.9    "></polygon>
		</g>
		<g>
			
				<rect x="10.5" y="48.2" transform="matrix(0.9872 -0.1594 0.1594 0.9872 -7.275 5.7988)" style="fill:#C6794D;" width="44" height="0.1"></rect>
		</g>
		<g>
			
				<rect x="11.2" y="52" transform="matrix(0.9873 -0.1589 0.1589 0.9873 -7.8552 5.9281)" style="fill:#C6794D;" width="44" height="0.1"></rect>
		</g>
		<g>
			
				<rect x="11.8" y="55.9" transform="matrix(0.9873 -0.1589 0.1589 0.9873 -8.4619 6.0818)" style="fill:#C6794D;" width="44" height="0.1"></rect>
		</g>
		<g>
			
				<rect x="12.5" y="59.7" transform="matrix(0.9872 -0.1594 0.1594 0.9872 -9.0918 6.2541)" style="fill:#C6794D;" width="44" height="0.1"></rect>
		</g>
		<g>
			
				<rect x="13.1" y="63.6" transform="matrix(0.9872 -0.1593 0.1593 0.9872 -9.6896 6.3996)" style="fill:#C6794D;" width="43.9" height="0.1"></rect>
		</g>
		<g>
			
				<rect x="13.7" y="67.4" transform="matrix(0.9872 -0.1593 0.1593 0.9872 -10.2905 6.548)" style="fill:#C6794D;" width="43.9" height="0.1"></rect>
		</g>
	</g>
	<g>
		<path style="fill:#C6794D;" d="M15.3,39.3c-0.7,1.4-1.2,2.9-1.9,4.3c0.1,0,0.1,0,0.2,0c0.3-1.7,1.2-3.3,2.4-4.5    c-0.1,0-0.1,0-0.2,0c-0.5,1-0.7,2.1-0.7,3.1c0,0.1,0.1,0,0.1,0c1.4-0.6,2.4-2,2.7-3.4c0-0.1-0.1,0-0.2,0c-0.4,0.6-0.8,1.2-0.8,2    c0,0.4,0.1,0.9,0.4,1.1c0.3,0.2,0.6,0.2,0.9,0c0.5-0.3,0.7-1,0.8-1.6c0-0.1-0.1,0-0.2,0c-0.2,0.2-0.4,0.5-0.5,0.8    c-0.1,0.3-0.1,0.6-0.2,0.9c0,0,0,0,0,0c0.7,0.1,1.6-0.2,1.9-0.8c0.1-0.2,0.1-0.4-0.1-0.5c-0.3-0.1-0.8,0.1-1.1,0.2    c0,0-0.1,0.1,0,0.1c0.5,0.2,1.1,0.3,1.6,0.2c0.7-0.2,1.2-0.7,1.7-1.1c0,0-0.1,0-0.1,0c-0.5,0.5-0.5,1.1-0.7,1.7c0,0.1,0.1,0,0.2,0    c0.3-0.3,0.6-0.6,1-1c-0.1,0-0.1,0-0.2,0c0.4,0.3,0.9,0.5,1.4,0.3c0.5-0.2,0.9-0.6,1.1-1c0.7-1.1,1.1-2.5,1.7-3.7    c-0.1,0-0.1,0-0.2,0c-0.3,1-0.7,1.9-1,2.9c-0.3,0.8-0.5,1.8-0.2,2.6c0,0.1,0.2,0,0.2,0c0-0.3,0.1-1.1-0.3-1.3    c-0.1-0.1-0.3-0.1-0.5,0c-0.3,0-0.7,0.1-1,0.1c0,0-0.2,0-0.1,0.1c0.8,1,2.2,0.8,3.2,0.1c0.3-0.2,0.5-0.4,0.7-0.7    c0.1-0.1,0.3-0.3,0.1-0.3c-0.3,0-0.6,0.4-0.8,0.6c-0.1,0.1,0.1,0.1,0.1,0c0.5-0.4,1-0.8,1.4-1.2c-0.1,0-0.1,0-0.2,0    c0,0.4-0.2,0.8-0.2,1.2c0,0.1,0.1,0,0.2,0c0.6-0.6,1.3-0.9,1.9-1.4c-0.1,0-0.1,0-0.2,0c-0.1,0.4-0.2,0.8-0.2,1.2    c0,0.1,0.1,0,0.2,0c0.2-0.2,0.5-0.4,0.7-0.6c0,0,0.5-0.4,0.3-0.5c0,0-0.1,0-0.1,0.1c-0.5,1.8-0.5,3.7-0.7,5.5c0.1,0,0.1,0,0.2,0    c-0.4-0.4-0.9-0.9-0.7-1.5c0.2-0.7,1.2-0.9,1.8-1c0.1,0,0.1-0.1,0-0.1c-0.7,0.1-1.5,0.3-1.9,0.9c-0.4,0.7,0.1,1.4,0.6,1.8    c0,0,0.2,0,0.2,0c0.3-1.8,0.2-3.7,0.7-5.5c0,0-0.1,0-0.1,0.1c0,0-0.2,0.2-0.2,0.2c-0.1,0.1-0.2,0.2-0.3,0.3    c-0.2,0.1-0.3,0.3-0.5,0.4c0.1,0,0.1,0,0.2,0c0.1-0.4,0.2-0.8,0.2-1.2c0-0.1-0.1,0-0.2,0c-0.6,0.6-1.3,0.9-1.9,1.4    c0.1,0,0.1,0,0.2,0c0-0.4,0.2-0.8,0.2-1.2c0-0.1-0.1,0-0.2,0c-0.4,0.4-1,0.8-1.4,1.2c0,0,0.1,0,0.1,0c0.2-0.2,0.3-0.3,0.5-0.5    c0.1-0.1-0.1,0.1-0.1,0.2c-0.1,0.1-0.2,0.2-0.3,0.3c-0.2,0.2-0.4,0.3-0.6,0.5c-0.9,0.5-2,0.5-2.6-0.3c0,0-0.1,0.1-0.1,0.1    c0.4,0,0.9-0.1,1.3,0c0.4,0.1,0.3,0.9,0.3,1.2c0.1,0,0.1,0,0.2,0c-0.2-0.9,0-1.8,0.3-2.7c0.3-0.9,0.7-1.8,0.9-2.8    c0-0.1-0.1,0-0.2,0c-0.6,1-0.9,2.1-1.5,3.2c-0.3,0.5-0.6,1-1,1.3c-0.5,0.3-1,0.2-1.5-0.2c0,0-0.1,0-0.2,0c-0.3,0.3-0.6,0.6-1,1    c0.1,0,0.1,0,0.2,0c0.3-0.6,0.3-1.2,0.7-1.7c0.1-0.1-0.1-0.1-0.1,0c-0.4,0.4-0.9,0.8-1.4,1.1c-0.5,0.2-1.1,0.1-1.6-0.1    c0,0,0,0.1,0,0.1c0.2-0.1,1-0.5,1-0.1c0.1,0.3-0.3,0.6-0.5,0.7c-0.2,0.1-0.4,0.2-0.6,0.2c-0.1,0-0.2,0-0.4,0.1    c-0.2,0-0.3,0-0.2-0.2c0.1-0.2,0.1-0.4,0.1-0.6c0.1-0.3,0.3-0.6,0.5-0.8c-0.1,0-0.1,0-0.2,0c-0.1,0.5-0.3,1.1-0.7,1.5    c-0.3,0.3-0.6,0.2-0.9-0.1c-0.7-0.8,0-2.2,0.6-2.8c-0.1,0-0.1,0-0.2,0c-0.3,1.4-1.3,2.8-2.6,3.3c0,0,0.1,0,0.1,0    c0-1.1,0.2-2.1,0.7-3.1c0-0.1-0.1,0-0.2,0c-1.2,1.2-2.2,2.8-2.4,4.6c0,0.1,0.1,0,0.2,0c0.7-1.4,1.2-2.9,1.9-4.3    C15.5,39.2,15.3,39.2,15.3,39.3L15.3,39.3z"></path>
	</g>
	<g>
		<path style="fill:#C6794D;" d="M28.8,38.1c0,0.1,0,0.2,0,0.2c0,0.1,0.2,0.1,0.2,0c0-0.1,0-0.2,0-0.2C29,38,28.8,38,28.8,38.1    L28.8,38.1z"></path>
	</g>
	<g>
		<path style="fill:#C6794D;" d="M28.7,39.6c0.2,0,0.2,0.3,0.2,0.4c0,0.1,0.2,0,0.2,0c0-0.2,0-0.5-0.3-0.5    C28.7,39.5,28.6,39.5,28.7,39.6C28.6,39.6,28.6,39.6,28.7,39.6L28.7,39.6z"></path>
	</g>
	<g>
		<path style="fill:#C6794D;" d="M17.4,47.2c-0.3,1.2-0.8,2.4-1.7,3.3c0,0,0.1,0,0.2,0c0.8-1.1,1.2-2.4,1.9-3.6c-0.1,0-0.1,0-0.2,0    c-0.2,0.4-0.3,0.8-0.3,1.2c0,0.4,0.1,0.8,0.1,1.2c0,0,0.1,0,0.1,0c1.3-0.3,2.2-1.3,2.7-2.5c0-0.1-0.1,0-0.2,0    c-0.3,0.5-0.5,1-0.5,1.5c0,0.5,0,1.1,0,1.6c0,0.1,0.2,0,0.2,0c0-0.5-0.1-1,0-1.5c0-0.6,0.2-1.1,0.5-1.6c-0.1,0-0.1,0-0.2,0    c-0.5,1.1-1.3,2.1-2.6,2.3c0,0,0.1,0,0.1,0c0-0.4-0.1-0.8-0.1-1.2c0-0.4,0.1-0.8,0.3-1.2c0-0.1-0.1,0-0.2,0    c-0.7,1.2-1.1,2.5-1.9,3.6c0,0.1,0.1,0,0.2,0c0.9-0.9,1.4-2.1,1.7-3.4C17.6,47.1,17.5,47.2,17.4,47.2L17.4,47.2z"></path>
	</g>
	<g>
		<path style="fill:#C6794D;" d="M21.9,48.4c-0.1-0.2,0.2-0.4,0.2-0.5c0-0.2-0.4-0.2-0.5-0.2c-0.2,0-0.5,0.5-0.6,0.7    c-0.2,0.3-0.3,0.7-0.3,1.1c0,0.1,0.1,0,0.2,0c0.3-0.2,0.7-0.4,1-0.6c0.4-0.3,0.5-0.9,0.7-1.3c0-0.1-0.1,0-0.2,0    c-0.2,0.3-0.4,0.6-0.4,0.9c0,0.4,0.2,0.8,0.2,1.2c0,0,0.1,0,0.1,0c0.5-0.3,1-0.7,1.3-1.3c0.3-0.6,0.4-1.2,0.4-1.9    c-0.1,0-0.1,0-0.2,0c0,0.4,0,0.8,0.1,1.1c0,0.2,0.1,0.5,0.1,0.7c0,0.1,0.1,0.3,0,0.3c0,0,0,0,0,0.1c0,0.1,0.3,0.1,0.4,0.2    c0.1,0,0.2,0,0.3,0c0.1,0,0,0,0.1,0c0,0,0.1,0,0.2,0c0.1-0.1,0.1-0.2,0.1-0.3c0-0.1,0-0.4,0.1-0.4c-0.1,0-0.1,0-0.2,0c0,0,0,0,0,0    c0.1,0,0.1,0,0.2-0.1c-0.5-0.2-1.1-0.5-1.7-0.5c0,0,0,0.1,0,0.1c0.9-0.2,1.9-0.2,2.8-0.2c0,0,0.1,0,0.1-0.1c0-0.1,0-0.2,0-0.2    c0-0.1-0.1,0-0.2,0c-0.4,0.4-0.6,0.8-1,1.2c0,0,0,0,0,0c0.6,0.1,1.2,0,1.7-0.5c0.5-0.5,0.8-1.3,0.9-2c0-0.1-0.2,0-0.2,0    c-0.2,0.7-0.2,1.4-0.2,2.2c0,0,0.1,0,0.1,0c0.7-0.5,1.7-0.5,2.4-1c0.1-0.1-0.1-0.1-0.1,0c-0.7,0.5-1.7,0.5-2.4,1c0,0,0.1,0,0.1,0    c0-0.7,0-1.4,0.2-2.1c-0.1,0-0.1,0-0.2,0c-0.1,0.8-0.4,1.8-1.2,2.2c-0.2,0.1-0.5,0.2-0.7,0.2c-0.1,0-0.3,0-0.2-0.1    c0.1-0.1,0.1-0.1,0.2-0.2c0.2-0.3,0.5-0.6,0.7-0.9c-0.1,0-0.1,0-0.2,0c0,0.1,0,0.2,0,0.2c0,0,0.1,0,0.1-0.1c-1,0-2,0-2.9,0.2    c-0.1,0-0.1,0.1,0,0.1c0.5,0,1.2,0.2,1.6,0.5c0,0,0.2,0,0.2-0.1c0,0,0,0,0,0c0,0-0.1,0-0.2,0c-0.1,0.1-0.1,0.2-0.1,0.3    c0,0.1,0,0.4-0.1,0.4c0.1,0,0.1,0,0.2,0c0,0,0,0,0,0c0,0,0,0-0.1,0c-0.1,0-0.3,0-0.4,0c-0.1,0-0.2,0-0.3-0.1c0,0,0-0.3,0-0.3    c0-0.4-0.1-0.7-0.2-1.1c0-0.3-0.1-0.6-0.1-0.9c0,0-0.2,0-0.2,0c0,0.6-0.1,1.2-0.3,1.7c-0.3,0.6-0.8,1-1.3,1.4c0,0,0.1,0,0.1,0    c0-0.4-0.1-0.7-0.1-1.1c-0.1-0.4,0.1-0.7,0.4-1c-0.1,0-0.1,0-0.2,0c-0.1,0.4-0.3,1-0.7,1.3c-0.3,0.2-0.7,0.4-1,0.6    c0.1,0,0.1,0,0.2,0c0-0.7,0.3-1.2,0.7-1.7c0,0-0.1,0-0.1,0c0.8,0-0.1,0.4,0.2,0.7C21.8,48.5,22,48.4,21.9,48.4L21.9,48.4z"></path>
	</g>
	<polygon style="fill:#6EA5BA;" points="33.1,57.9 20.6,70.7 74.4,72.6 69.8,57.9  "></polygon>
	<path style="fill:#2B4F68;" d="M20.6,70.6c0,0,48.4-0.3,52.2,0.7c2.8,0.7,3,8.2,3,8.2s-0.2,8.7-3.3,9c-3.1,0.3-52.1,0.1-52.1,0.1   s3-4.5,3.1-8.6C23.4,75.9,20.6,70.6,20.6,70.6z"></path>
	<path style="fill:#FFF2E9;" d="M21.3,72.1c0,0,44.7-0.3,48.2,0.6c2.7,0.6,2.8,6.8,2.8,6.8s-0.2,7.3-3.1,7.5   c-2.9,0.2-48.1,0.1-48.1,0.1s1.2-2.5,1.2-7.5C22.4,74.2,21.3,72.1,21.3,72.1z"></path>
	<path style="fill:#E8E1EF;" d="M29,68c-2.8,1-5.8,1.4-8.4,2.7c1,1.9,1.6,4.5,1.5,7.1c0,0,18-3.1,29.9-3.6   c9.9-0.4,17.4-2.3,22.3-0.7c0.3-2-1.3-4-2.4-5.5H29z"></path>
	<path style="fill:#C6794D;" d="M31.1,75.9c0,0,0.6,0,1.6,0c0.5,0,1.2,0,1.9,0c0.4,0,0.8,0,1.2,0c0.4,0,0.8,0,1.3,0   c0.9,0,1.9,0,2.9,0c1,0,2.1,0,3.2,0c0.6,0,1.1,0,1.7,0c0.3,0,0.6,0,0.9,0c0.3,0,0.6,0,0.9,0c0.6,0,1.2,0,1.8,0c0.1,0,0.3,0,0.4,0   l0.2,0l0.2,0c0.3,0,0.6,0,0.9,0c1.2,0,2.4,0.1,3.6,0.1c1.2,0.1,2.3,0.1,3.4,0.1c0.3,0,0.6,0,0.8,0c0.3,0,0.5,0,0.8,0   c0.5,0,1.1,0,1.6,0c1,0,2,0,2.9,0c0.9,0,1.7,0,2.4,0c0.7,0,1.4,0,1.9,0c1,0,1.6,0,1.6,0s-0.6,0-1.6,0.1c-0.5,0-1.2,0-1.9,0.1   c-0.7,0-1.5,0-2.4,0.1c-0.9,0-1.9,0-2.9,0c-0.5,0-1,0-1.6,0c-0.5,0-1.1,0-1.6,0c-1.1,0-2.3,0-3.5-0.1c-1.2,0-2.4-0.1-3.6-0.1   c-0.3,0-0.6,0-0.9,0l-0.2,0l-0.2,0c-0.1,0-0.3,0-0.4,0c-0.6,0-1.2,0-1.8,0c-0.3,0-0.6,0-0.9,0c-0.3,0-0.6,0-0.9,0   c-0.6,0-1.1,0-1.7,0c-0.3,0-0.6,0-0.8,0c-0.3,0-0.5,0-0.8,0c-0.5,0-1.1,0-1.6,0c-1,0-2,0-2.9,0c-0.9,0-1.7,0-2.4,0   c-0.7,0-1.4,0-1.9,0C31.7,75.9,31.1,75.9,31.1,75.9z"></path>
	<path style="fill:#C6794D;" d="M24.6,78.3c0,0,0.7,0,1.8,0c0.6,0,1.3,0,2.1,0c0.8,0,1.7,0,2.7,0c1,0,2.1,0,3.2,0c1.1,0,2.3,0,3.6,0   c1.2,0,2.5,0,3.8,0c1.3,0,2.6,0,3.9,0c2.6,0,5.3,0,7.8,0c2.5,0,4.8,0,6.8,0c4,0,6.6,0,6.6,0s-2.6,0-6.6,0c-2,0-4.3,0-6.8,0   c-2.5,0-5.1,0-7.8,0c-1.3,0-2.6,0-3.9,0c-1.3,0-2.6,0-3.8,0c-2.5,0-4.8,0-6.8,0c-1,0-1.9,0-2.7,0c-0.8,0-1.5,0-2.1,0   C25.3,78.3,24.6,78.3,24.6,78.3z"></path>
	<path style="fill:#C6794D;" d="M30.1,79.2c0,0,2.4,0,6.1,0c0.9,0,1.9,0,2.9,0c1,0,2.1,0,3.3,0c2.3,0,4.7,0,7.1,0c2.4,0,4.8,0,7.1,0   c2.3,0,4.4,0,6.2,0c3.6,0,6.1,0,6.1,0s-2.4,0-6.1,0c-1.8,0-3.9,0-6.2,0c-2.3,0-4.7,0-7.1,0C39.8,79.2,30.1,79.2,30.1,79.2z"></path>
	<g>
		<g>
			<polygon style="fill:#A33C00;" points="93.4,58.9 92.4,54.1 87.7,55.1 90,62.6    "></polygon>
		</g>
	</g>
	<g>
		<g>
			<path style="fill:#FCC107;" d="M89.2,60.2c0,0-0.3,13.7-11.1,19.2c-12.2,6.2-28.7-0.6-29.8-0.1c-1.1,0.5-2.6,2-2,2.9     c0.6,0.9,3.1,6.9,13.6,10.6c10.6,3.7,37.2,0.7,38.7-23.1c0.5-7.5-5.6-11.6-5.6-11.6L89.2,60.2z"></path>
		</g>
	</g>
	<g>
		<g>
			<path style="fill:#F2A718;" d="M46.6,80.8c-0.6,0.6-0.6,0.9-0.3,1.4c0.6,0.9,3.1,6.8,13.6,10.5c10.6,3.7,37.2,0.7,38.6-23     c0.4-7.4-5.6-11.5-5.6-11.5L91.5,59c0,0,8.2,18.5-10.9,28.1C64,95.6,47,80.4,46.6,80.8z"></path>
		</g>
	</g>
	<g>
		<g>
			<path style="fill:#FFDD01;" d="M75.7,83.2c-0.8-1.9-4.3,0.9-9.6,1c-5.2,0.1-8.3-0.5-8.3-0.5s4.2,1.9,7.9,2.6     C71.7,87.4,76.9,85.9,75.7,83.2z"></path>
		</g>
	</g>
	<path style="fill:#A44AA0;" d="M77.8,70.5l5.5-7.9c0,0,0.2-1.9,0.2-4.8c0-2.8-0.7-5.4-0.7-5.4l-6.1,8.7L77.8,70.5z"></path>
	<path style="fill:#A44AA0;" d="M27.7,60.8c0,0,46.8-0.2,49,0.4c1.7,0.4,1.8,4.9,1.8,4.9s-0.1,5.2-2,5.4c-1.9,0.2-48.8,0.1-48.8,0.1   s0,0,1.3-5.4C29.6,63.8,27.7,60.8,27.7,60.8z"></path>
	<path style="fill:#FFE7D4;" d="M27.7,61.7c0,0,45-0.1,47.2,0.4c1.6,0.4,1.7,4,1.7,4s-0.1,4.3-1.9,4.5c-1.7,0.1-47,0-47,0   s1-1.3,1.3-4.4C29.3,62.6,27.7,61.7,27.7,61.7z"></path>
	<polygon style="fill:#CC75CC;" points="27.7,60.8 44.8,52.4 82.9,52.5 76.8,61.2  "></polygon>
	<polygon style="fill:#E3B0EA;" points="76.8,61.2 82.9,52.5 81.1,52.4 74.7,61.1  "></polygon>
	<path style="fill:#C6794D;" d="M36.5,64.8c0,0,0.6,0,1.6,0c0.5,0,1.2,0,1.9,0c0.4,0,0.8,0,1.2,0c0.4,0,0.8,0,1.3,0   c0.9,0,1.9,0,2.9,0c1,0,2.1,0,3.2,0c0.6,0,1.1,0,1.7,0c0.3,0,0.6,0,0.9,0c0.3,0,0.6,0,0.9,0c0.6,0,1.2,0,1.8,0c0.1,0,0.3,0,0.4,0   l0.2,0l0.2,0c0.3,0,0.6,0,0.9,0c1.2,0,2.4,0.1,3.6,0.1c1.2,0.1,2.3,0.1,3.4,0.1c0.3,0,0.6,0,0.8,0c0.3,0,0.5,0,0.8,0   c0.5,0,1.1,0,1.6,0c1,0,2,0,2.9,0c0.9,0,1.7,0,2.4,0c0.7,0,1.4,0,1.9,0c1,0,1.6,0,1.6,0s-0.6,0-1.6,0.1c-0.5,0-1.2,0-1.9,0.1   c-0.7,0-1.5,0-2.4,0.1c-0.9,0-1.9,0-2.9,0c-0.5,0-1,0-1.6,0c-0.5,0-1.1,0-1.6,0c-1.1,0-2.3,0-3.5-0.1c-1.2,0-2.4-0.1-3.6-0.1   c-0.3,0-0.6,0-0.9,0l-0.2,0l-0.2,0c-0.1,0-0.3,0-0.4,0c-0.6,0-1.2,0-1.8,0c-0.3,0-0.6,0-0.9,0c-0.3,0-0.6,0-0.9,0   c-0.6,0-1.1,0-1.7,0c-0.3,0-0.6,0-0.8,0c-0.3,0-0.5,0-0.8,0c-0.5,0-1.1,0-1.6,0c-1,0-2,0-2.9,0c-0.9,0-1.7,0-2.4,0   c-0.7,0-1.4,0-1.9,0C37.1,64.7,36.5,64.8,36.5,64.8z"></path>
	<path style="fill:#C6794D;" d="M30,67.1c0,0,0.7,0,1.8,0c0.6,0,1.3,0,2.1,0c0.8,0,1.7,0,2.7,0c1,0,2.1,0,3.2,0c1.1,0,2.3,0,3.6,0   c1.2,0,2.5,0,3.8,0c1.3,0,2.6,0,3.9,0c2.6,0,5.3,0,7.8,0c2.5,0,4.8,0,6.8,0c4,0,6.6,0,6.6,0s-2.6,0-6.6,0c-2,0-4.3,0-6.8,0   c-2.5,0-5.1,0-7.8,0c-1.3,0-2.6,0-3.9,0c-1.3,0-2.6,0-3.8,0c-2.5,0-4.8,0-6.8,0c-1,0-1.9,0-2.7,0c-0.8,0-1.5,0-2.1,0   C30.7,67.1,30,67.1,30,67.1z"></path>
	<path style="fill:#C6794D;" d="M35.5,68c0,0,2.4,0,6.1,0c0.9,0,1.9,0,2.9,0c1,0,2.1,0,3.3,0c2.3,0,4.7,0,7.1,0c2.4,0,4.8,0,7.1,0   c2.3,0,4.4,0,6.2,0c3.6,0,6.1,0,6.1,0s-2.4,0-6.1,0c-1.8,0-3.9,0-6.2,0c-2.3,0-4.7,0-7.1,0C45.2,68,35.5,68,35.5,68z"></path>
	<path style="fill:#C6794D;" d="M74.9,61.9c0.8,2.7,1.4,6.3-0.1,8.8c1.1-0.2,1.5-2.4,1.7-3.4c0.2-1.5,0.1-3.4-0.6-4.6   C75.6,62.5,74.9,61.9,74.9,61.9z"></path>
	<path style="fill:#6EA5BA;" d="M36.3,75.8c-1,0.9-3.3,5.6-2.2,8.2c0.2-0.3,1.2-0.7,1.5-1c0.4,0.3,2.1,0.7,2.5,1   c-1-3.4,1.2-7.7,2.2-8.3H36.3z"></path>
	<path style="opacity:0.2;fill:#530254;" d="M37.8,83.9c-0.1-4-0.2-5.5,2.3-7.9c-0.3-0.1-1-0.3-1.3-0.2c-1.4,2.6-2.1,5.2-1.3,7.8   L37.8,83.9z"></path>
	<path style="opacity:0.3;fill:#ED8707;" d="M44.1,55.5c12.3,0.1,29.5,0,29.5,0l7.5-3.1l-28.8,0.5L44.1,55.5z"></path>
	<polygon style="fill:#E8E1EF;" points="46.7,49.6 43.9,55.4 44.7,55.8 49,51.4  "></polygon>
	<polygon style="fill:#E8E1EF;" points="71.2,49.6 74,55.4 73.3,55.8 68.9,51.4  "></polygon>
	<polygon style="opacity:0.4;fill:#797085;" points="44.4,55.5 47.5,50.6 49,51.4 44.7,55.8  "></polygon>
	<polygon style="opacity:0.4;fill:#797085;" points="73.6,55.5 70.5,50.6 69,51.4 73.3,55.8  "></polygon>
	<rect x="58.5" y="14.4" style="fill:#797085;" width="0.8" height="3.6"></rect>
	<path style="fill:#797085;" d="M61,15c0,0.4-0.4,0.8-0.8,0.8h-2.6c-0.4,0-0.8-0.4-0.8-0.8l0,0c0-0.4,0.4-0.8,0.8-0.8h2.6   C60.6,14.1,61,14.5,61,15L61,15z"></path>
	<ellipse transform="matrix(0.2267 -0.974 0.974 0.2267 10.4845 85.2843)" style="fill:#2B4F68;" cx="59" cy="36" rx="19" ry="19"></ellipse>
	<path style="fill:#E8E1EF;" d="M76,35.8c0,9.3-7.6,16.9-16.9,16.9s-16.9-7.6-16.9-16.9c0-9.3,7.6-16.9,16.9-16.9S76,26.5,76,35.8z"></path>
	
		<ellipse transform="matrix(0.2274 -0.9738 0.9738 0.2274 10.4503 85.2507)" style="fill:#FFF2E9;" cx="59" cy="36" rx="14.7" ry="14.7"></ellipse>
	<path style="opacity:0.3;fill:#FFFFFF;" d="M68.7,19.7c0,0,4.9,3.6,6.1,5.9c1.3,2.3,2.6,6.1,2.6,6.1L51.2,53.4c0,0-5.4-3.3-7-5.4   c-1.7-2.2-3.4-6.4-3.4-6.4L68.7,19.7z"></path>
	<path style="fill:#530254;" d="M72.6,35.8c0,0.4-0.3,0.7-0.7,0.7c-0.4,0-0.7-0.3-0.7-0.7c0-0.4,0.3-0.7,0.7-0.7   C72.3,35.1,72.6,35.4,72.6,35.8z"></path>
	<path style="fill:#530254;" d="M47,35.8c0,0.4-0.3,0.7-0.7,0.7c-0.4,0-0.7-0.3-0.7-0.7c0-0.4,0.3-0.7,0.7-0.7   C46.7,35.1,47,35.4,47,35.8z"></path>
	<path style="fill:#530254;" d="M59.1,22.8c0.4,0,0.7,0.3,0.7,0.7c0,0.4-0.3,0.7-0.7,0.7c-0.4,0-0.7-0.3-0.7-0.7   C58.4,23.1,58.7,22.8,59.1,22.8z"></path>
	<path style="fill:#530254;" d="M59.1,48.3c0.4,0,0.7,0.3,0.7,0.7c0,0.4-0.3,0.7-0.7,0.7c-0.4,0-0.7-0.3-0.7-0.7   C58.4,48.6,58.7,48.3,59.1,48.3z"></path>
	<path style="fill:#530254;" d="M65.8,24.4c0.2,0.3,0.2,0.7-0.1,0.9c-0.3,0.2-0.7,0.2-0.9-0.1c-0.2-0.3-0.2-0.7,0.1-0.9   C65.2,24,65.6,24.1,65.8,24.4z"></path>
	<path style="fill:#530254;" d="M53.2,46.6c0.2,0.3,0.2,0.7-0.1,0.9c-0.3,0.2-0.7,0.2-0.9-0.1c-0.2-0.3-0.2-0.7,0.1-0.9   C52.6,46.3,53,46.3,53.2,46.6z"></path>
	<path style="fill:#530254;" d="M48.6,41.8c0.2,0.3,0.2,0.7-0.1,0.9c-0.3,0.2-0.7,0.2-0.9-0.1c-0.2-0.3-0.2-0.7,0.1-0.9   C47.9,41.5,48.3,41.5,48.6,41.8z"></path>
	<path style="fill:#530254;" d="M65.9,46.6c0.2,0.3,0.2,0.7-0.1,0.9c-0.3,0.2-0.7,0.2-0.9-0.1c-0.2-0.3-0.2-0.7,0.1-0.9   C65.3,46.2,65.7,46.3,65.9,46.6z"></path>
	<path style="fill:#530254;" d="M70.7,41.8c0.2,0.3,0.2,0.7-0.1,0.9c-0.3,0.2-0.7,0.2-0.9-0.1c-0.2-0.3-0.2-0.7,0.1-0.9   C70,41.5,70.4,41.5,70.7,41.8z"></path>
	<path style="fill:#530254;" d="M70.7,29c0.2,0.3,0.2,0.7-0.1,0.9c-0.3,0.2-0.7,0.2-0.9-0.1s-0.2-0.7,0.1-0.9   C70,28.7,70.4,28.7,70.7,29z"></path>
	<path style="fill:#530254;" d="M53.2,24.4c0.2,0.3,0.2,0.7-0.1,0.9s-0.7,0.2-0.9-0.1c-0.2-0.3-0.2-0.7,0.1-0.9   C52.6,24,53,24.1,53.2,24.4z"></path>
	<path style="fill:#530254;" d="M48.6,29c0.2,0.3,0.2,0.7-0.1,0.9c-0.3,0.2-0.7,0.2-0.9-0.1s-0.2-0.7,0.1-0.9   C47.9,28.7,48.3,28.7,48.6,29z"></path>
	<path style="fill:#A44AA0;" d="M58.3,34.9c0,0-0.5-6.6-0.5-8.1c0-0.9,1-2.6,1-2.6s1.1,1.3,1.1,2.6c0,1.3-0.6,8.1-0.6,8.1H58.3z"></path>
	<path style="fill:#FFF2E9;" d="M58.7,33.9c0,0-0.2-6.3-0.2-7.1c0-0.6,0.4-1.6,0.4-1.6s0.4,0.8,0.4,1.6c0,0.8-0.2,7.1-0.2,7.1H58.7z   "></path>
	<path style="fill:#A44AA0;" d="M58,36.5c0,0-4.8,0.4-6.2,0.4c-0.9,0-2.6-1-2.6-1s1.3-1.1,2.6-1.1c1.3,0,6.2,0.7,6.2,0.7L58,36.5z"></path>
	<path style="fill:#FFF2E9;" d="M58.1,36.3c0,0-4.5,0.2-5.6,0.2c-0.7,0-2-0.6-2-0.6s1-0.7,2-0.7c1,0,5.6,0.4,5.6,0.4L58.1,36.3z"></path>
	<path style="fill:#A44AA0;" d="M60.7,36c0,1-0.8,1.8-1.8,1.8c-1,0-1.8-0.8-1.8-1.8c0-1,0.8-1.8,1.8-1.8   C59.9,34.3,60.7,35.1,60.7,36z"></path>
	<path style="fill:#CC75CC;" d="M60.1,36c0,0.6-0.5,1.1-1.1,1.1c-0.6,0-1.1-0.5-1.1-1.1c0-0.6,0.5-1.1,1.1-1.1   C59.6,34.9,60.1,35.4,60.1,36z"></path>
	<path style="fill:#3F6D77;" d="M45.1,13.8c0,0,2.8-1,3.8-2.3c1.5-2,2-3.3,3.2-4.1C53.6,6.5,56.1,5.9,59,6c2.8,0.1,7.3,0.6,8.4,1.9   c1.1,1.3,1.1,2.1,1.9,3.4c0.8,1.4,2.5,2.6,2.5,2.6l-0.3,0.7c0,0-1.9-1.7-2.4-2.5c-0.8-1.2-0.8-3.3-2.8-4.2c-2-1-5.6-1-7.4-1   c-1.7,0-4.7,0.1-6.4,1.1c-2.1,1.3-1.5,2.1-3.3,3.8c-1.1,1.1-3.5,2.3-3.5,2.3L45.1,13.8z"></path>
	<path style="fill:#797085;" d="M45.5,12.6c-0.5,0.2-0.7,0.8-0.5,1.2l1.7-0.8C46.6,12.6,46,12.4,45.5,12.6z"></path>
	<path style="fill:#797085;" d="M48,13c0.2,0.4,0.1,0.8-0.3,1l-2.1,1.2c-0.4,0.2-0.8,0.1-1-0.3l0,0c-0.2-0.4-0.1-0.8,0.3-1l2.1-1.2   C47.3,12.5,47.8,12.7,48,13L48,13z"></path>
	<path style="fill:#797085;" d="M72.6,12.7c-0.4-0.3-1-0.2-1.3,0.2l1.5,1.1C73.1,13.5,73,13,72.6,12.7z"></path>
	<path style="fill:#797085;" d="M73.4,15c-0.2,0.4-0.7,0.5-1,0.3L70.3,14c-0.4-0.2-0.5-0.7-0.3-1l0,0c0.2-0.4,0.7-0.5,1-0.3l2.1,1.2   C73.5,14.1,73.7,14.6,73.4,15L73.4,15z"></path>
	<path style="fill:#6EA5BA;" d="M47.9,12.8l-3.1,1.7c-2.8,1.5-3.8,5-2.3,7.8c0,0,2.5-0.8,6.7-3.1c4.3-2.3,6.4-4,6.4-4   C54.1,12.3,50.6,11.3,47.9,12.8z"></path>
	<path style="opacity:0.4;fill:#3F6D77;" d="M47.9,12.8l-0.7,0.4c2.1-0.3,2.9,2.1,2.2,3.5c-0.9,1.9-4.6,3.9-7.4,4.6   c0.1,0.3,0.3,0.7,0.4,1c0,0,2.5-0.8,6.7-3.1c4.3-2.3,6.4-4,6.4-4C54.1,12.3,50.6,11.3,47.9,12.8z"></path>
	<path style="opacity:0.5;fill:#FFFFFF;" d="M47.2,14.4c-1.2-0.4-2.9,0.9-3.6,1.9c-0.6,0.8-1.2,2.6,0.4,2.3c1.1-0.2,2.1-1.2,2.9-1.9   C47.3,16.4,48.4,14.8,47.2,14.4z"></path>
	<path style="fill:#6EA5BA;" d="M73.2,14.3l-3.1-1.7c-2.8-1.5-6.2-0.5-7.7,2.3c0,0,2,1.6,6.3,3.9c4.3,2.3,6.9,3.2,6.9,3.2   C77,19.3,75.9,15.8,73.2,14.3z"></path>
	<path style="opacity:0.4;fill:#3F6D77;" d="M73.2,14.3l-0.7-0.4c1.4,1.6-0.2,3.6-1.7,3.8C68.8,18,65,15.9,63,14   c-0.2,0.3-0.4,0.6-0.6,0.9c0,0,2,1.6,6.3,3.9c4.3,2.3,6.9,3.2,6.9,3.2C77,19.2,75.9,15.8,73.2,14.3z"></path>
	<path style="opacity:0.5;fill:#FFFFFF;" d="M71.5,14.7c-0.3-1.2-2.3-1.9-3.6-2c-1-0.1-2.8,0.4-1.7,1.6c0.7,0.8,2.2,1.2,3.2,1.4   C69.9,15.8,71.8,15.9,71.5,14.7z"></path>
	<polygon style="fill:#FFCF9C;" points="22.6,58.4 28.5,59.5 29.3,59.5 29.3,56.8 28.5,56.8 22.6,57.9  "></polygon>
	<polygon style="fill:#ECBA84;" points="22.6,58.4 29.3,59 29.3,57.4 22.6,57.9  "></polygon>
	<polygon style="fill:#C6794D;" points="29.1,58.8 23.7,58.3 22.6,58.5 28.7,59.6 29.1,59.5  "></polygon>
	<polygon style="fill:#A44AA0;" points="23.8,58.6 21.2,58.2 24.7,57.5 24.2,58.1  "></polygon>
	<polygon style="fill:#530254;" points="21.2,58.2 24,58.4 23.9,58.7  "></polygon>
	<polygon style="fill:#C499C8;" points="21.2,58.1 24.5,57.8 24.7,57.5  "></polygon>
	<path style="fill:#FFD26F;" d="M29.1,59.5l0-0.6l0-1.5c0,0-0.6,0-0.6-0.3c0-0.3,0.6-0.3,0.6-0.3l34.9,0l0.6,0.6l0,1.3L64,59.5   L29.1,59.5z"></path>
	<path style="fill:#FFB901;" d="M64.6,57.4l0,1.3l-35.6,0c0,0-0.7-0.1-0.8-0.6c0-0.6,0.7-0.7,0.7-0.7L64.6,57.4z"></path>
	<path style="fill:#F59100;" d="M64,59.5l0.6-0.8l-35.6,0c0,0-0.6,0-0.6,0.4c0,0.4,0.6,0.4,0.6,0.4L64,59.5z"></path>
</g>
</svg>