<svg xmlns="http://www.w3.org/2000/svg" xmlns:xlink="http://www.w3.org/1999/xlink" x="0px" y="0px" viewBox="0 0 100 100" style="enable-background:new 0 0 100 100;" xml:space="preserve">
<path style="opacity:0.4;fill-rule:evenodd;clip-rule:evenodd;fill:#CA92FF;" d="M11,87.6c0,0-8.3-13.1,0-17c0,0,8-2.3,22.7-5  c0,0,12.1-6.8,9.5-17.7c0,0-1.6-38.5,13-43.6c0,0,13.9-4.9,26.1,3.9c0,0,12.3,12.6,10.1,29.7c0,0,2.7,20.2-26.5,49.8  c0,0-22.4,11.5-35,9.2C30.9,96.8,20.2,98.3,11,87.6z"></path>
<g>
	<g>
		<g>
			<g>
				<g>
					<path style="fill:#5D5470;" d="M20.7,37.1c0,0-7.1,3.9-7.5,13.1c-0.7,14.5,11.5,15.2,11.5,15.2v5.5c0,0-12.6-2.8-15.5-12.3       c-5.2-17.4,8.5-26.3,8.5-26.3L20.7,37.1z"></path>
				</g>
			</g>
		</g>
	</g>
	<g>
		<g>
			<g>
				<g>
					
						<rect x="20.3" y="10.9" transform="matrix(0.8336 -0.5523 0.5523 0.8336 -13.8656 19.938)" style="fill:#B7C1E2;" width="11.8" height="44.2"></rect>
				</g>
			</g>
		</g>
	</g>
	<g>
		<g>
			<g>
				<g>
					<rect x="21.9" y="63.1" style="fill:#B7C1E2;" width="27.9" height="2.8"></rect>
				</g>
			</g>
		</g>
	</g>
	<g>
		<g>
			<g>
				<g>
					
						<rect x="18.5" y="4.2" transform="matrix(0.8336 -0.5523 0.5523 0.8336 -10.9779 16.2017)" style="fill:#B7C1E2;" width="5.9" height="44.2"></rect>
				</g>
			</g>
		</g>
	</g>
	<g>
		<g>
			<g>
				<g>
					<rect x="23.5" y="65.9" style="fill:#D3D9ED;" width="14.3" height="16.5"></rect>
				</g>
			</g>
		</g>
	</g>
	<path style="fill:#43405A;" d="M9.8,19.1c0,0-0.6-0.8,4.3-3.8c3-1.8,5.5-2.6,5.5-2.6l1.8,2.8l-10.3,5.9L9.8,19.1z"></path>
	<g>
		<g>
			<g>
				<g>
					<rect x="21.9" y="65.3" style="fill:#43405A;" width="27.9" height="1"></rect>
				</g>
			</g>
		</g>
	</g>
	<g>
		<g>
			<g>
				<g>
					<path style="fill:#D3D9ED;" d="M30,53.3l13.4-8.9l-20.5-31c0,0-2.1,0.1-7.1,3.4c-5.4,3.5-6.3,5.5-6.3,5.5L30,53.3z"></path>
				</g>
			</g>
		</g>
	</g>
	<path style="opacity:0.3;fill:#FFFFFF;" d="M12,19.5l7.5,11.1c0,0,4.2,7.9,7.6,5.6C32.1,32.8,17,16.4,17,16.4L12,19.5z"></path>
	<path style="opacity:0.4;fill:#7C7091;" d="M22.6,13.5l-2.2,1.6c0,0,10.3,11.2,10.3,19.6c0,7-6.3,10.1-6.3,10.1l5.4,8.6l13.4-8.9   L22.6,13.5z"></path>
	<g>
		<g>
			<g>
				<g>
					
						<rect x="26.4" y="41.3" transform="matrix(0.8336 -0.5523 0.5523 0.8336 -19.3728 26.5692)" style="fill:#43405A;" width="16.1" height="8.3"></rect>
				</g>
			</g>
		</g>
	</g>
	<g>
		<g>
			<g>
				<g>
					<path style="fill:#D3D9ED;" d="M19.5,37.5c0,0-7.1,3.9-7.5,13.1c-0.7,14.5,11.5,15.2,11.5,15.2v5.5c0,0-12.6-2.8-15.5-12.3       c-5.2-17.4,8.5-26.3,8.5-26.3L19.5,37.5z"></path>
				</g>
			</g>
		</g>
	</g>
	<g>
		<g>
			<g>
				<g>
					<path style="fill:#43405A;" d="M13.2,34.9c0,2.9,2.4,5.3,5.3,5.3c2.9,0,5.3-2.4,5.3-5.3c0-2.9-2.4-5.3-5.3-5.3       C15.5,29.6,13.2,31.9,13.2,34.9z"></path>
				</g>
			</g>
		</g>
	</g>
	<g>
		<g>
			<g>
				<g>
					<path style="fill:#44B4A6;" d="M15.1,34.9c0,1.9,1.5,3.4,3.4,3.4c1.9,0,3.4-1.5,3.4-3.4c0-1.9-1.5-3.4-3.4-3.4       C16.6,31.5,15.1,33,15.1,34.9z"></path>
				</g>
			</g>
		</g>
	</g>
	<g>
		<g>
			<g>
				<g>
					<path style="fill:#43405A;" d="M20.3,67.8c0,1.8,1.5,3.3,3.3,3.3c1.8,0,3.3-1.5,3.3-3.3s-1.5-3.3-3.3-3.3       C21.7,64.5,20.3,66,20.3,67.8z"></path>
				</g>
			</g>
		</g>
	</g>
	<g>
		<g>
			<g>
				<g>
					<path style="fill:#44B4A6;" d="M21.4,67.8c0,1.2,0.9,2.1,2.1,2.1c1.2,0,2.1-0.9,2.1-2.1s-0.9-2.1-2.1-2.1       C22.4,65.7,21.4,66.6,21.4,67.8z"></path>
				</g>
			</g>
		</g>
	</g>
	<polygon style="fill:#43405A;" points="6.7,9.5 4.2,8.9 11.8,3.9 11.7,6.3  "></polygon>
	<polygon style="opacity:0.5;fill:#FFFFFF;" points="7.7,9 12.5,15.4 13.6,14.6 9.5,7.8  "></polygon>
	<path style="opacity:0.5;fill:#7C7091;" d="M35.5,65.9c0,0,1.3,8.1-2.1,11.3c-2.5,2.4-9.9,1.6-9.9,1.6v2.4h14.3V65.9H35.5z"></path>
	<g>
		<g>
			<g>
				<g>
					<rect x="9.3" y="80.9" style="fill:#43405A;" width="40.5" height="2.8"></rect>
				</g>
			</g>
		</g>
	</g>
	<g>
		<g>
			<g>
				<g>
					<path style="fill:#43405A;" d="M10.8,41.6c0,0.7,0.6,1.3,1.3,1.3c0.7,0,1.3-0.6,1.3-1.3c0-0.7-0.6-1.3-1.3-1.3       C11.4,40.2,10.8,40.8,10.8,41.6z"></path>
				</g>
			</g>
		</g>
	</g>
	<g>
		<g>
			<g>
				<g>
					<path style="fill:#44B4A6;" d="M11.3,41.6c0,0.5,0.4,0.8,0.8,0.8c0.5,0,0.8-0.4,0.8-0.8c0-0.5-0.4-0.8-0.8-0.8       C11.7,40.7,11.3,41.1,11.3,41.6z"></path>
				</g>
			</g>
		</g>
	</g>
	<path style="fill:#A04507;" d="M28.4,87.3c-0.4-0.2-1.4-2.2-1.6-3.4c-0.2-1.9,0.1-4.2,1.2-3.1c-1.5,2,0.7,5.9,1.3,6.8L28.4,87.3z"></path>
	<polygon style="fill:#ED8707;" points="87.2,79.7 53.1,94.1 56.9,95.4 90.9,79.9  "></polygon>
	<polygon style="fill:#A04507;" points="56.9,96.1 90.9,80.6 90.9,79.9 56.9,95.4  "></polygon>
	<polygon style="fill:#DF6409;" points="56.9,96.1 28.3,87.2 28.2,86.6 56.9,95.4  "></polygon>
	<path style="fill:#FFE7D4;" d="M28.8,86.7c0,0-1-1.8-1.2-3.1c-0.2-1.4,0-2.3,0-2.3l28.7,8.4c0,0-0.8,0.6-0.6,2.1   c0.2,1.5,0.6,3.3,0.6,3.3L28.8,86.7z"></path>
	<path style="fill:#F9D0AF;" d="M55.8,92.3c0.1,1.6,0.6,2.9,0.6,2.9l33.2-15c0,0-0.5-0.7-0.9-2.3c-0.3-1.3,0.2-2.6,0.2-2.6   L56.3,89.3C56.3,89.3,55.6,90.4,55.8,92.3z"></path>
	<polygon style="fill:#A04507;" points="56.3,89.7 90.9,75 90.9,74.4 56.3,88.9  "></polygon>
	<polygon style="fill:#DF6409;" points="56.3,89.7 27.7,81.2 27.7,80.6 56.3,88.9  "></polygon>
	<polygon style="fill:#FFBD33;" points="56.3,88.9 90.9,74.4 65.8,69.3 27.7,80.6  "></polygon>
	<g style="opacity:0.5;">
		<path style="fill:#C6794D;" d="M59.3,89.7c0,0,0.4-0.2,1.2-0.5c0.7-0.3,1.8-0.7,3.1-1.2c0.6-0.3,1.3-0.5,2.1-0.8    c0.7-0.3,1.5-0.6,2.3-0.9c0.8-0.3,1.6-0.7,2.4-1c0.8-0.4,1.7-0.7,2.5-1.1c0.8-0.4,1.7-0.8,2.5-1.2c0.8-0.4,1.6-0.8,2.4-1.1    c1.6-0.7,3-1.4,4.3-2c2.5-1.1,4.2-1.9,4.2-1.9s-1.7,0.8-4.2,1.9c-1.2,0.6-2.7,1.3-4.3,2c-0.8,0.4-1.6,0.7-2.4,1.1    c-0.8,0.4-1.6,0.8-2.5,1.2c-0.4,0.2-0.8,0.4-1.2,0.6c-0.2,0.1-0.4,0.2-0.6,0.3c-0.2,0.1-0.4,0.2-0.6,0.3c-0.4,0.2-0.8,0.4-1.2,0.5    c-0.4,0.2-0.8,0.3-1.2,0.5c-0.8,0.3-1.6,0.6-2.3,0.9c-0.4,0.1-0.7,0.3-1.1,0.4c-0.3,0.1-0.7,0.3-1,0.4c-0.6,0.2-1.2,0.5-1.8,0.7    c-0.5,0.2-1,0.4-1.4,0.5C59.7,89.5,59.3,89.7,59.3,89.7z"></path>
	</g>
	<g style="opacity:0.5;">
		<path style="fill:#C6794D;" d="M63.3,88.9c0,0,1.3-0.5,3.2-1.4c0.5-0.2,1-0.4,1.5-0.7c0.5-0.2,1.1-0.5,1.7-0.7    c0.6-0.3,1.2-0.5,1.8-0.8c0.6-0.3,1.3-0.6,1.9-0.8c0.6-0.3,1.3-0.6,1.9-0.8c0.6-0.3,1.2-0.5,1.8-0.8c1.2-0.5,2.3-1,3.2-1.4    c1.9-0.8,3.2-1.4,3.2-1.4s-1.3,0.6-3.1,1.4c-1.9,0.9-4.4,2-6.9,3.1c-0.3,0.1-0.6,0.3-0.9,0.4c-0.3,0.1-0.6,0.3-0.9,0.4    c-0.6,0.3-1.2,0.5-1.8,0.8c-0.6,0.3-1.2,0.5-1.7,0.7c-0.5,0.2-1.1,0.4-1.5,0.6c-0.5,0.2-0.9,0.4-1.3,0.5c-0.4,0.2-0.7,0.3-1,0.4    C63.6,88.8,63.3,88.9,63.3,88.9z"></path>
	</g>
	<g style="opacity:0.5;">
		<path style="fill:#C6794D;" d="M58.8,93c0,0,0.5-0.2,1.3-0.6c0.4-0.2,0.9-0.4,1.4-0.7c0.6-0.3,1.2-0.5,1.9-0.9    c0.7-0.3,1.4-0.7,2.2-1c0.8-0.4,1.6-0.7,2.5-1.1c0.9-0.4,1.8-0.8,2.7-1.2c0.9-0.4,1.8-0.8,2.8-1.2c0.9-0.4,1.9-0.8,2.8-1.2    c0.9-0.4,1.8-0.8,2.7-1.2c1.7-0.8,3.4-1.5,4.7-2.1c2.8-1.2,4.6-2.1,4.6-2.1s-1.8,0.8-4.6,2.1c-1.4,0.6-3,1.4-4.7,2.1    c-0.9,0.4-1.8,0.8-2.7,1.2c-0.9,0.4-1.8,0.8-2.8,1.2c-0.9,0.4-1.8,0.8-2.8,1.2c-0.9,0.4-1.8,0.8-2.7,1.2c-1.7,0.8-3.4,1.5-4.7,2.1    c-0.7,0.3-1.3,0.6-1.9,0.8c-0.6,0.2-1.1,0.5-1.5,0.6C59.3,92.8,58.8,93,58.8,93z"></path>
	</g>
	<path style="fill:#FFD833;" d="M32.6,82c5.3-3.8,22.5-9.5,33.3-8.8c1.6,0.1,5.1,0.3,5.4,2.4c0.4,2.3-3.9,5-5.2,6.1   c-3.9,3.1-7.5,4.2-11.9,6.3L32.6,82z"></path>
	<path style="opacity:0.3;fill:#A04507;" d="M66.1,81.7c4.2,0,11.7-2.7,11.9-5.5c0.1-2.2-6.1-2.4-8.4-1.8L66.1,81.7z"></path>
	<path style="fill:#CC75CC;" d="M55.4,70.3c-0.5,1.1-0.8,2.3-0.8,3.6c0,2.9,1.4,5.4,3.5,7c0.7,0.9,2.7,1.4,5.1,1.4   c2.3,0,4.3-0.5,5-1.3h0c2.2-1.6,3.7-4.2,3.7-7.1c0-1.3-0.3-2.5-0.8-3.6H55.4z"></path>
	<path style="opacity:0.3;fill:#530254;" d="M71.1,70.3h-3.5c0,0.3,0.1,0.7,0.1,1c0,2.9-1.5,5.5-3.7,7.1h0c-0.7,0.8-2.7,1.3-5,1.3   c-0.8,0-1.6-0.1-2.3-0.2c0.4,0.5,0.9,1,1.5,1.4c0.7,0.9,2.7,1.4,5.1,1.4c2.3,0,4.3-0.5,5-1.3h0c2.2-1.6,3.7-4.2,3.7-7.1   C71.9,72.6,71.6,71.3,71.1,70.3z"></path>
	<g>
		<path style="fill:#A44AA0;" d="M71.1,70.2c0,0.9-3.5,1.7-7.8,1.7c-4.3,0-7.8-0.8-7.8-1.7c0-0.9,3.5-1.7,7.8-1.7    C67.6,68.6,71.1,69.3,71.1,70.2z"></path>
		<path style="fill:#E3B0EA;" d="M63.2,72.1c-4,0-8.1-0.7-8.1-1.9s4.1-1.9,8.1-1.9c4,0,8.1,0.7,8.1,1.9S67.2,72.1,63.2,72.1z     M63.2,68.8c-2.1,0-4,0.2-5.5,0.5c-1.7,0.4-2.1,0.8-2.1,1s0.4,0.6,2.1,1c1.5,0.3,3.4,0.5,5.5,0.5c2.1,0,4-0.2,5.5-0.5    c1.7-0.4,2.1-0.8,2.1-1s-0.4-0.6-2.1-1C67.3,68.9,65.3,68.8,63.2,68.8z"></path>
	</g>
	<path style="fill:#933D12;" d="M68,71.3L68,71.3c0,0-2.1-1-4.7-1c-2.6,0-4.7,1-4.7,1l0,0c0,0,2.4,0.4,4.7,0.4   C65.8,71.7,68,71.3,68,71.3z"></path>
	<path style="opacity:0.7;fill:#E3B0EA;" d="M57.3,72.7c-2,1-1.6,3.9,0,4.6c1.6,0.7,3-0.7,3.3-2.2C60.8,74.1,58.6,72.1,57.3,72.7z"></path>
	<g>
		<path style="fill:#104414;" d="M63.2,71.8c-1.8-3.3-3-9.8-3.6-14.6c-0.7-5.8-1-11.2-1-12.9c0-1.8,0.3-3.6,0.5-5.4    c0.3-1.9,0.6-4,0.5-6c0-0.5-0.1-1.1-0.1-1.6c-0.1-2-0.3-4.2,0.2-6.2c0.3-1.3,0.9-2.6,1.6-3.9c0.5-1,1-2,1.3-2.9l0.4,0.1    c-0.3,1-0.8,1.9-1.3,3c-0.6,1.3-1.2,2.6-1.5,3.8c-0.5,1.9-0.3,4-0.2,6c0,0.5,0.1,1.1,0.1,1.7c0.1,2-0.2,4.1-0.5,6    c-0.3,1.7-0.6,3.5-0.5,5.3c0.1,4.3,1.3,21.5,4.6,27.3L63.2,71.8z"></path>
	</g>
	<g>
		<path style="fill:#7DB538;" d="M62.4,19.6c-1.1-5.9,2.1-7.9,4.4-8.8c0,0,1.1,3.5-0.2,5.5C64.7,19.2,62.4,19.6,62.4,19.6z"></path>
		<path style="fill:#234F1B;" d="M62.4,19.7L62.4,19.7c-0.5-2.7-0.2-4.8,0.9-6.4c0.8-1.1,1.9-1.9,3.5-2.6l0.1,0l0,0.1    c0,0.1,1.1,3.6-0.2,5.6C64.8,19.2,62.6,19.7,62.4,19.7L62.4,19.7z M66.8,10.9c-3.6,1.5-5,4.3-4.3,8.5c0.4-0.1,2.4-0.8,4-3.2    C67.7,14.5,66.9,11.5,66.8,10.9z"></path>
	</g>
	<g>
		<path style="fill:#2E6525;" d="M52.4,33.6c2-2,6.7,2.6,6.8,6.5c-0.1-0.5,0.6-2,0.4-2.7c-0.2-0.8-1.6-3.4-2.1-4.2    c-1.5-2.5-2.4-3.3-5.5-2.9L52.4,33.6z"></path>
		<path style="fill:#14300E;" d="M59,40c0-0.1,0-0.1,0-0.2c-0.1-1.4-0.8-3.1-2-4.5c-1.1-1.3-2.5-2.2-3.5-2.2c-0.4,0-0.8,0.2-1.1,0.5    l-0.1,0.1l-0.4-3.6l0.1,0c0.5-0.1,1-0.1,1.4-0.1c2.1,0,2.9,1,4.2,3c0.5,0.8,1.8,3.5,2.1,4.3c0.1,0.4-0.1,1-0.2,1.6    c-0.1,0.3-0.2,0.7-0.2,0.9c0,0.1,0,0.1,0,0.2L59,40z M53.5,33c1.1,0,2.4,0.8,3.6,2.2c1,1.2,1.8,2.7,2,4c0-0.1,0.1-0.2,0.1-0.3    c0.1-0.5,0.3-1.2,0.2-1.5c-0.2-0.8-1.6-3.4-2.1-4.2c-1.2-2-2-2.9-4-2.9c-0.4,0-0.8,0-1.2,0.1l0.4,3.1C52.8,33.1,53.1,33,53.5,33z"></path>
	</g>
	<g>
		<path style="fill:#6E953F;" d="M57.8,34.3c-2.5-5.9-4.7,1-7.5,1.5c-3.5,0.6-6.5-2.9-9.5-1.6c2.4-2.8,3.9-7.8,8.4-7.3    c3.5,0.4,8,5.2,8,5.2L57.8,34.3z"></path>
		<path style="fill:#234F1B;" d="M49.5,36c-1.4,0-2.7-0.5-3.9-1c-1.2-0.5-2.3-0.9-3.4-0.9c-0.5,0-0.9,0.1-1.3,0.3l-0.4,0.1l0.2-0.3    c0.6-0.7,1.2-1.6,1.8-2.5c1.5-2.4,3.1-4.9,6.1-4.9c0.2,0,0.4,0,0.6,0c3.5,0.4,7.9,5,8.1,5.2l0,0l0.6,2.3l-0.2,0.1    C57,32.8,56.4,32,55.6,32c-0.8,0-1.6,0.9-2.5,1.8c-0.9,0.9-1.8,1.9-2.8,2.1C50,35.9,49.7,36,49.5,36z M42.2,33.8    c1.1,0,2.2,0.5,3.4,0.9c1.2,0.5,2.5,1,3.9,1c0.3,0,0.5,0,0.8-0.1c1-0.2,1.9-1.1,2.7-2c0.9-0.9,1.8-1.8,2.6-1.8    c0.7,0,1.2,0.5,1.8,1.5l-0.3-1.3c-0.3-0.3-4.6-4.8-7.9-5.1c-0.2,0-0.4,0-0.6,0c-2.9,0-4.4,2.4-6,4.8c-0.5,0.8-1,1.6-1.6,2.3    C41.4,33.9,41.8,33.8,42.2,33.8z"></path>
	</g>
	<path style="fill:#85B539;" d="M49,27.5c-2.8-0.4-4.3,2.7-5.8,4.8c1.2-0.6,3.3,1.2,5.1,0.2c1.2-0.6,2.8-4.7,4.1-3.9   C52.4,28.6,49.9,27.6,49,27.5z"></path>
	<g>
		<path style="fill:#6E953F;" d="M57,31.9c-1.1-4-2.3-9,2.8-10.8c0,3.2-0.3,5.3-2.2,8.1L57,31.9z"></path>
		<path style="fill:#234F1B;" d="M57,32.3l-0.1-0.4c-0.5-1.9-1.1-4.2-0.9-6.2c0.2-2.3,1.5-3.8,3.8-4.6l0.1,0l0,0.1    c0,3.4-0.4,5.4-2.2,8.1L57,32.3z M59.6,21.2c-4.8,1.7-3.7,6.6-2.7,10.3l0.5-2.4l0,0C59.3,26.5,59.6,24.5,59.6,21.2z"></path>
	</g>
	<g>
		<path style="fill:#7DB538;" d="M56.6,30.1c-1.1-2.3-2.8-4.8-3.7-7.3c-0.9-2.7,0-4.8,0.3-7.6c0.8,1.8,3.5,3.9,4.1,5.8    C58.3,24.2,56.6,30.1,56.6,30.1z"></path>
		<path style="fill:#234F1B;" d="M56.7,30.4l-0.1-0.2c-0.4-0.9-0.9-1.8-1.5-2.8c-0.8-1.5-1.7-3-2.2-4.5c-0.7-2-0.4-3.6-0.1-5.4    c0.1-0.7,0.3-1.4,0.3-2.2l0-0.4l0.1,0.3c0.4,0.8,1.1,1.7,1.9,2.6c0.9,1.1,1.8,2.2,2.2,3.2c1,3.1-0.6,8.9-0.7,9.1L56.7,30.4z     M53.3,15.6c-0.1,0.7-0.2,1.3-0.3,1.9c-0.3,1.8-0.6,3.4,0.1,5.3c0.5,1.5,1.4,3.1,2.2,4.5c0.5,0.9,1,1.7,1.4,2.6    c0.3-1.1,1.5-6.1,0.6-8.8c-0.3-1-1.2-2.1-2.1-3.1C54.3,17.1,53.7,16.3,53.3,15.6z"></path>
	</g>
	<g>
		<path style="fill:#6E953F;" d="M58.9,43.3c1.7-0.5,2.5-2.4,3.9-3.3c1.5-1,3.1-1.4,5-1.3c-1.5,0.6-2,2.7-3.2,3.8    C61.7,45.2,58.9,43.3,58.9,43.3z"></path>
		<path style="fill:#234F1B;" d="M61.2,44.1c-1.4,0-2.3-0.6-2.4-0.7l-0.2-0.1l0.2-0.1c1-0.3,1.7-1.1,2.4-1.8c0.5-0.5,0.9-1,1.5-1.4    c1.3-0.9,2.7-1.3,4.4-1.3c0.2,0,0.4,0,0.6,0l0.4,0l-0.4,0.2c-0.9,0.4-1.4,1.2-1.9,2.1c-0.4,0.6-0.7,1.2-1.2,1.7    C63.6,43.6,62.4,44.1,61.2,44.1z M59.1,43.4c0.3,0.2,1.1,0.5,2.1,0.5c1.2,0,2.3-0.5,3.3-1.4c0.5-0.4,0.8-1,1.2-1.6    c0.5-0.8,0.9-1.5,1.7-2c-0.1,0-0.1,0-0.2,0c-1.7,0-3,0.4-4.3,1.3c-0.5,0.4-1,0.9-1.4,1.4C60.7,42.3,60.1,43,59.1,43.4z"></path>
	</g>
	<g>
		<path style="fill:#2E6525;" d="M60,35.5c1.8-2.2,0.3-4.6,0.7-7c0.3-1.9,2.5-5.2,4.1-6.3c0.1-0.2,0.1-0.2,0,0    c-0.4,4.7,0.9,8.3-3.2,11.9L60,35.5z"></path>
		<path style="fill:#14300E;" d="M60.1,35.6l-0.1-0.1c1.1-1.4,0.9-2.8,0.7-4.3c-0.1-0.9-0.2-1.8-0.1-2.7c0.3-1.9,2.4-5.1,4.1-6.3    l0,0l0,0c0.1-0.1,0.1-0.1,0.2-0.1h0.1l0,0c0,0.1,0,0.1-0.1,0.2l0,0l0,0c-0.1,1.1-0.1,2.2-0.1,3.2c0,3.2,0,5.9-3.1,8.7L60.1,35.6z     M64.6,22.4c-1.6,1.2-3.6,4.3-3.9,6.1c-0.2,0.9,0,1.8,0.1,2.7c0.2,1.3,0.3,2.6-0.4,3.8l1.1-0.9c3-2.7,3-5.4,3-8.5    C64.5,24.5,64.5,23.5,64.6,22.4z"></path>
	</g>
	<g>
		<path style="fill:#234F1B;" d="M58.7,44.7c-0.4-2.8,1.5-4.9,2.8-6.3c0.4-0.4,0.7-0.8,0.9-1.1l0.3,0.2c-0.2,0.3-0.5,0.7-0.9,1.1    c-1.3,1.4-3.1,3.4-2.7,6L58.7,44.7z"></path>
	</g>
	<g>
		<path style="fill:#6E953F;" d="M60.8,51.9c1.4-1.1,1.5-3.1,2.5-4.4c1.1-1.5,2.5-2.4,4.2-2.9c-1.2,1.1-0.9,3.2-1.7,4.7    C64,52.8,60.8,51.9,60.8,51.9z"></path>
		<path style="fill:#234F1B;" d="M61.6,52.1c-0.5,0-0.8-0.1-0.9-0.1l-0.2,0l0.2-0.1c0.8-0.6,1.2-1.6,1.6-2.6    c0.2-0.6,0.5-1.3,0.9-1.9c1-1.4,2.4-2.4,4.3-3l0.4-0.1l-0.3,0.3c-0.7,0.6-0.9,1.6-1.1,2.6c-0.1,0.7-0.3,1.4-0.6,2    C64.7,51.7,62.7,52.1,61.6,52.1z M61,51.9c0.1,0,0.4,0,0.6,0c1,0,2.9-0.4,4.2-2.7c0.3-0.6,0.4-1.3,0.6-2c0.2-0.9,0.3-1.8,0.9-2.5    c-1.7,0.6-2.9,1.5-3.9,2.8c-0.4,0.5-0.6,1.1-0.9,1.8C62.1,50.3,61.8,51.2,61,51.9z"></path>
	</g>
	<g>
		<path style="fill:#6E953F;" d="M59.6,49.7c-0.6-0.4-1.5,0-2.2-0.1c-0.8-0.1-1.3-0.6-1.8-1.2c0.6,0.3,1.5-0.3,2.2-0.3    C59.5,48.1,59.6,49.7,59.6,49.7z"></path>
		<path style="fill:#234F1B;" d="M59.7,49.9l-0.2-0.1c-0.2-0.1-0.4-0.2-0.6-0.2c-0.2,0-0.4,0-0.6,0.1c-0.2,0-0.4,0.1-0.6,0.1    c-0.1,0-0.2,0-0.3,0c-0.8-0.1-1.3-0.5-1.9-1.3l-0.2-0.3l0.3,0.1c0.1,0,0.2,0.1,0.3,0.1c0.3,0,0.6-0.1,0.9-0.2    c0.3-0.1,0.6-0.2,0.9-0.2h0c1.8,0,1.9,1.7,1.9,1.8L59.7,49.9z M55.9,48.6c0.4,0.6,1,0.9,1.6,1c0.1,0,0.2,0,0.3,0    c0.2,0,0.4,0,0.6-0.1c0.2,0,0.4-0.1,0.6-0.1c0.2,0,0.4,0,0.6,0.1c-0.1-0.4-0.4-1.4-1.7-1.4h0c-0.3,0-0.6,0.1-0.9,0.2    c-0.3,0.1-0.6,0.2-0.9,0.2l0,0C56,48.6,55.9,48.6,55.9,48.6z"></path>
	</g>
	<g>
		<path style="fill:#6E953F;" d="M57.1,82.8c1.5,0,2.6-1.4,3.9-1.8c1.5-0.5,2.9-0.4,4.3,0.1c-1.4,0.2-2.2,1.8-3.4,2.4    C58.9,85,57.1,82.8,57.1,82.8z"></path>
		<path style="fill:#234F1B;" d="M59.8,84.1c-1.7,0-2.8-1.2-2.8-1.2l-0.1-0.1l0.2,0c0.9,0,1.6-0.5,2.3-1c0.5-0.3,1-0.7,1.5-0.8    c0.7-0.2,1.4-0.3,2.1-0.3c0.7,0,1.5,0.1,2.4,0.4l0.4,0.1l-0.4,0.1c-0.8,0.1-1.4,0.7-2,1.3c-0.4,0.4-0.9,0.8-1.4,1.1    C61.2,83.9,60.5,84.1,59.8,84.1z M57.3,82.9c0.3,0.3,1.2,1,2.5,1c0.7,0,1.4-0.2,2.1-0.5c0.5-0.3,0.9-0.7,1.3-1.1    c0.5-0.5,1.1-1,1.8-1.3c-0.7-0.2-1.3-0.3-2-0.3c-0.7,0-1.3,0.1-2,0.3c-0.5,0.2-1,0.5-1.5,0.8C58.9,82.3,58.1,82.8,57.3,82.9z"></path>
	</g>
	<g>
		<path style="fill:#6E953F;" d="M67.9,36.5c5.4-3.3,4.5-8.7,9.1-9.5c-2.1-2.8-6.6-2.8-9.5-2.1c-1.7,0.5-4.8,3.5-5.3,5.2    c-1.5,4.6,0.6,6.7-0.3,8C61.8,38.1,64.9,38.3,67.9,36.5z"></path>
		<path style="fill:#234F1B;" d="M62.1,38.2L62.1,38.2c-0.2,0-0.3,0-0.3,0l-0.2,0l0.1-0.1c0.4-0.5,0.2-1.1,0-2    c-0.3-1.4-0.7-3.2,0.2-5.9c0.5-1.6,3.6-4.8,5.4-5.3c1.1-0.3,2.3-0.4,3.4-0.4c2.8,0,5,0.9,6.2,2.6l0.1,0.1l-0.1,0    c-2.3,0.4-3.2,2.1-4.3,4c-1,1.8-2.1,3.9-4.7,5.5C65.5,38,63.1,38.2,62.1,38.2z M62,38c0,0,0.1,0,0.2,0c0.9,0,3.4-0.2,5.7-1.6    c2.6-1.6,3.7-3.6,4.7-5.5c1-1.9,1.9-3.6,4.3-4.1c-1.6-2.1-4.4-2.4-5.9-2.4c-1.1,0-2.3,0.1-3.4,0.4c-1.8,0.5-4.7,3.6-5.3,5.1    c-0.9,2.7-0.5,4.5-0.2,5.8C62.1,36.8,62.3,37.5,62,38z"></path>
	</g>
	<path style="fill:#85B539;" d="M75.1,26.3c-1.6-1.1-5.3-1.5-7.6-0.6c-3.3,1.4-3.1,4.5-3.9,7.3c0.9-2.2,2.1-2.4,4.1-2.9   c1.8-0.4,3.6-2.2,4.5-2.9C72.7,26.7,75.1,26.3,75.1,26.3z"></path>
	<path style="fill:#104414;" d="M62.6,37.4C62.6,37.4,62.6,37.4,62.6,37.4c0-0.1,0.1-0.1,0.1-0.2c0.1-0.1,0.2-0.3,0.3-0.4   c0.1-0.2,0.3-0.4,0.6-0.6c0.2-0.2,0.5-0.4,0.9-0.6c0.3-0.2,0.7-0.4,1.1-0.6c0.4-0.2,0.8-0.4,1.3-0.6c0.4-0.2,0.9-0.4,1.4-0.7   c0.4-0.3,0.9-0.5,1.3-0.9c0.4-0.4,0.7-0.8,1-1.2c0.3-0.4,0.6-0.9,0.8-1.3c0.3-0.4,0.5-0.8,0.8-1.2c0.3-0.4,0.5-0.7,0.8-1   c0.1-0.1,0.3-0.3,0.4-0.4c0.1-0.1,0.3-0.2,0.4-0.3c0.3-0.2,0.5-0.3,0.8-0.4c0.2-0.1,0.4-0.1,0.5-0.1c0.1,0,0.1,0,0.1,0c0,0,0,0,0,0   s0,0,0,0c0,0-0.1,0-0.1,0c-0.1,0-0.3,0.1-0.5,0.2c-0.2,0.1-0.5,0.2-0.7,0.4c-0.3,0.2-0.5,0.4-0.8,0.7c-0.3,0.3-0.5,0.6-0.8,1   c-0.3,0.4-0.5,0.8-0.8,1.2c-0.3,0.4-0.5,0.9-0.8,1.3c-0.3,0.4-0.6,0.9-1,1.3c-0.4,0.4-0.8,0.7-1.3,0.9c-0.5,0.3-0.9,0.5-1.4,0.7   c-0.5,0.2-0.9,0.4-1.3,0.6c-0.4,0.2-0.8,0.4-1.1,0.6c-0.3,0.2-0.6,0.4-0.9,0.6c-0.3,0.2-0.5,0.4-0.6,0.6c-0.1,0.2-0.3,0.3-0.3,0.4   C62.7,37.3,62.7,37.4,62.6,37.4C62.6,37.4,62.6,37.4,62.6,37.4z"></path>
	<path style="fill:#104414;" d="M62.7,36.7c0,0,0-0.1,0-0.2c0-0.1,0-0.2,0-0.4c0-0.2,0.1-0.4,0.1-0.7c0.1-0.3,0.2-0.5,0.3-0.8   c0.1-0.1,0.2-0.3,0.3-0.4c0.1-0.1,0.2-0.3,0.3-0.4c0.2-0.3,0.5-0.6,0.8-0.9c0.3-0.3,0.6-0.5,1-0.8c0.2-0.1,0.4-0.2,0.5-0.3   c0.2-0.1,0.4-0.2,0.6-0.3c0.4-0.2,0.8-0.3,1.2-0.5c0.4-0.2,0.8-0.3,1.1-0.5c0.4-0.2,0.7-0.4,1-0.5c0.3-0.2,0.6-0.4,0.8-0.6   c0.2-0.2,0.5-0.4,0.7-0.6c0.2-0.2,0.3-0.3,0.5-0.5c0.1-0.1,0.2-0.3,0.3-0.3c0.1-0.1,0.1-0.1,0.1-0.1s0,0-0.1,0.1   c0,0-0.1,0.1-0.1,0.2c0,0.1-0.1,0.1-0.1,0.2c-0.1,0.1-0.3,0.3-0.4,0.5c-0.2,0.2-0.4,0.4-0.6,0.6c-0.2,0.2-0.5,0.4-0.8,0.6   c-0.3,0.2-0.6,0.4-1,0.6c-0.4,0.2-0.7,0.4-1.1,0.5c-0.4,0.2-0.8,0.3-1.2,0.5c-0.2,0.1-0.4,0.2-0.6,0.3c-0.2,0.1-0.4,0.2-0.5,0.3   c-0.2,0.1-0.3,0.2-0.5,0.4c-0.2,0.1-0.3,0.3-0.5,0.4c-0.3,0.3-0.6,0.5-0.8,0.8c-0.2,0.3-0.4,0.6-0.6,0.8c-0.2,0.3-0.3,0.5-0.4,0.8   c-0.1,0.2-0.1,0.5-0.2,0.6c0,0.2-0.1,0.3-0.1,0.4C62.7,36.6,62.7,36.7,62.7,36.7z"></path>
	<g>
		<path style="fill:#6E953F;" d="M65.1,64.6c3.5-1.8,3.2-5.3,6.2-5.6c-1.2-1.9-4-2.1-5.9-1.7c-1.1,0.2-3.2,2-3.6,3.1    c-1.2,2.8,0.1,4.3-0.5,5C61.2,65.3,63.1,65.6,65.1,64.6z"></path>
		<path style="fill:#234F1B;" d="M61.8,65.4L61.8,65.4c-0.4,0-0.7,0-0.7,0l-0.2,0l0.1-0.1c0.2-0.3,0.2-0.7,0.1-1.3    c-0.1-0.9-0.3-2.1,0.4-3.8c0.4-1,2.5-2.9,3.7-3.1c0.5-0.1,1-0.1,1.6-0.1c2,0,3.6,0.7,4.4,1.9l0.1,0.1l-0.1,0    c-1.5,0.2-2.1,1.2-2.9,2.3c-0.7,1.1-1.5,2.4-3.3,3.3C63.9,65.3,62.6,65.4,61.8,65.4z M61.3,65.2c0.1,0,0.3,0,0.5,0    c0.8,0,2-0.1,3.2-0.8c1.7-0.9,2.5-2.1,3.2-3.2c0.7-1.2,1.4-2.2,2.8-2.4c-0.8-1.1-2.3-1.7-4.2-1.7c-0.5,0-1.1,0-1.5,0.1    c-1.1,0.2-3.1,2-3.5,3c-0.7,1.6-0.5,2.8-0.4,3.7C61.5,64.5,61.5,64.9,61.3,65.2z"></path>
	</g>
	<path style="fill:#85B539;" d="M70.1,58.4c-0.9-0.8-3.3-1.2-4.8-0.7c-2.2,0.7-2.1,2.7-2.8,4.4c0.6-1.4,1.4-1.4,2.7-1.6   c1.2-0.2,2.4-1.3,2.9-1.6C68.5,58.6,70.1,58.4,70.1,58.4z"></path>
	<path style="fill:#104414;" d="M61.7,64.9C61.7,64.9,61.7,64.9,61.7,64.9c0,0,0-0.1,0.1-0.1c0-0.1,0.1-0.2,0.2-0.3   c0.1-0.1,0.2-0.2,0.4-0.4c0.2-0.1,0.4-0.2,0.6-0.4c0.2-0.1,0.5-0.2,0.7-0.3c0.3-0.1,0.5-0.2,0.8-0.3c0.3-0.1,0.6-0.2,0.9-0.4   c0.3-0.1,0.6-0.3,0.8-0.5c0.2-0.2,0.5-0.5,0.7-0.7c0.2-0.3,0.4-0.5,0.6-0.8c0.2-0.3,0.4-0.5,0.6-0.7c0.2-0.2,0.4-0.4,0.6-0.6   c0.2-0.2,0.4-0.3,0.6-0.4c0.2-0.1,0.4-0.2,0.5-0.2c0.1,0,0.3,0,0.3-0.1c0,0,0.1,0,0.1,0c0,0,0,0,0,0s0,0,0,0c0,0,0,0-0.1,0   c-0.1,0-0.2,0-0.3,0.1c-0.1,0-0.3,0.1-0.5,0.2c-0.2,0.1-0.4,0.2-0.5,0.4c-0.2,0.2-0.4,0.4-0.5,0.6c-0.2,0.2-0.4,0.5-0.5,0.7   c-0.2,0.3-0.4,0.5-0.6,0.8c-0.2,0.3-0.4,0.5-0.7,0.8c-0.3,0.2-0.6,0.4-0.9,0.5c-0.3,0.1-0.6,0.3-0.9,0.4c-0.3,0.1-0.6,0.2-0.8,0.3   c-0.3,0.1-0.5,0.2-0.7,0.3c-0.2,0.1-0.4,0.2-0.6,0.3c-0.2,0.1-0.3,0.2-0.4,0.3C61.9,64.7,61.8,64.8,61.7,64.9   C61.8,64.9,61.8,64.9,61.7,64.9C61.7,64.9,61.7,64.9,61.7,64.9z"></path>
	<path style="fill:#104414;" d="M61.8,64.4C61.8,64.4,61.8,64.4,61.8,64.4c0-0.2,0-0.3,0-0.4c0-0.1,0.1-0.3,0.1-0.4   c0.1-0.2,0.1-0.3,0.2-0.5c0.1-0.2,0.2-0.4,0.4-0.5c0.2-0.2,0.3-0.4,0.5-0.5c0.2-0.2,0.4-0.3,0.7-0.5c0.1-0.1,0.2-0.1,0.4-0.2   c0.1-0.1,0.3-0.1,0.4-0.2c0.3-0.1,0.5-0.2,0.8-0.3c0.2-0.1,0.5-0.2,0.7-0.3c0.2-0.1,0.5-0.2,0.7-0.3c0.2-0.1,0.4-0.2,0.6-0.3   c0.2-0.1,0.3-0.2,0.4-0.3c0.1-0.1,0.2-0.2,0.3-0.3c0.1-0.1,0.1-0.1,0.2-0.2c0,0,0.1-0.1,0.1-0.1s0,0-0.1,0.1c0,0.1-0.1,0.1-0.2,0.2   c-0.1,0.1-0.2,0.2-0.3,0.3c-0.1,0.1-0.3,0.2-0.4,0.4c-0.2,0.1-0.4,0.2-0.6,0.4c-0.2,0.1-0.4,0.2-0.7,0.3c-0.2,0.1-0.5,0.2-0.7,0.3   c-0.2,0.1-0.5,0.2-0.8,0.3c-0.1,0-0.3,0.1-0.4,0.1c-0.1,0.1-0.2,0.1-0.4,0.2c-0.1,0.1-0.2,0.1-0.3,0.2c-0.1,0.1-0.2,0.1-0.3,0.2   c-0.2,0.2-0.4,0.3-0.5,0.5c-0.2,0.2-0.3,0.3-0.4,0.5c-0.1,0.2-0.2,0.3-0.3,0.5c-0.1,0.1-0.1,0.3-0.1,0.4   C61.8,64.2,61.8,64.3,61.8,64.4C61.8,64.4,61.8,64.4,61.8,64.4z"></path>
	<path style="opacity:0.5;fill:#2E6525;" d="M40.5,34.3c3-2.9,6.2,1,9.4-0.7c1.3-0.7,1.8-2.2,3.4-2.6c2.1-0.6,3.1,0.6,4,2.1   c-2-3.1-4.4,1.1-6.1,2.3c-3.3,2.3-5.6-1.2-8.5-1.2C42.1,34.1,40.5,34.3,40.5,34.3z"></path>
	<path style="opacity:0.7;fill:#2E6525;" d="M62.5,19.4c2.4-3,4.2-4.7,4.2-8.3c1.3,2.6,0.4,6.1-2.2,7.3L62.5,19.4z"></path>
	<g>
		<g>
			<g>
				<g>
					<g>
						
							<rect x="74.5" y="53.1" transform="matrix(0.5751 -0.8181 0.8181 0.5751 -14.6884 86.3528)" style="fill:#43405A;" width="2.5" height="8.5"></rect>
					</g>
				</g>
			</g>
		</g>
	</g>
	<g>
		<g>
			<g>
				<g>
					<g>
						<path style="fill:#44B4A6;" d="M91.5,65.3c0.8,0.6,1,1.8,0.5,2.6l-0.7,1c-0.6,0.8-1.8,1-2.6,0.5l-12.3-8.7        c-0.8-0.6-1-1.8-0.5-2.6l0.7-1c0.6-0.8,1.8-1,2.6-0.5L91.5,65.3z"></path>
					</g>
				</g>
			</g>
		</g>
	</g>
	<g>
		<g>
			<g>
				<g>
					<g>
						<path style="fill:#40A395;" d="M76.5,57.1c0,0,3.7,2.2,9,5.9c5,3.5,6,5.4,6,5.4l0.3-0.5c0.6-0.8,0.4-2-0.5-2.6l-12.3-8.7        C78.3,56.1,77.1,56.3,76.5,57.1z"></path>
					</g>
				</g>
			</g>
		</g>
	</g>
	<g>
		<g>
			<g>
				<g>
					<g>
						<path style="fill:#2E415F;" d="M74.6,53.2c-0.3,0.9-0.7,1.7-1.3,2.4c-3.3,4.7-9.9,5.9-14.6,2.5c-3.9-2.7-5.4-7.7-3.8-12.1        c0.3-0.9,0.7-1.7,1.3-2.4c3.3-4.7,9.9-5.9,14.6-2.5C74.7,43.7,76.2,48.7,74.6,53.2z M56.4,46.5c-1.4,3.8,0,8,3.2,10.3        c4,2.8,9.6,1.9,12.4-2.2c0.5-0.6,0.8-1.3,1.1-2.1c1.4-3.8,0-8-3.2-10.3c-4-2.8-9.6-1.9-12.4,2.2        C57.1,45.1,56.7,45.8,56.4,46.5z"></path>
					</g>
				</g>
			</g>
		</g>
	</g>
	<g style="opacity:0.5;">
		<g>
			<g>
				<g>
					<g>
						<path style="fill:#FFFFFF;" d="M70.1,42c4.2,2.9,5.2,8.7,2.3,12.9c-2.9,4.2-8.7,5.2-12.9,2.3s-5.2-8.7-2.3-12.9        C60.1,40,65.9,39,70.1,42z"></path>
					</g>
				</g>
			</g>
		</g>
	</g>
	<g style="opacity:0.7;">
		<g>
			<g>
				<g>
					<g>
						<path style="fill:#FFFFFF;" d="M59.1,45.6c0,0,4.8-5.2,11.3-0.6c1.3,1-2.2-3.4-5.4-3.4C61,41.5,59.1,45.6,59.1,45.6z"></path>
					</g>
				</g>
			</g>
		</g>
	</g>
	<g>
		<g>
			<g>
				<g>
					<g>
						<path style="fill:#2E415F;" d="M49.7,81.9c0.3,0.6,0.4,1.2,0.5,1.8c0.5,3.9-2.7,7.8-7.1,8.7c-3.6,0.8-7.1-0.7-8.4-3.5        c-0.3-0.6-0.4-1.2-0.5-1.8c-0.5-3.9,2.7-7.8,7.1-8.7C44.9,77.6,48.4,79.1,49.7,81.9z M35.8,88.4c1.1,2.4,4.1,3.7,7.1,3        c3.8-0.8,6.5-4.1,6.1-7.4c-0.1-0.5-0.2-1-0.4-1.5c-1.1-2.4-4.1-3.7-7.1-3c-3.8,0.8-6.5,4.1-6.1,7.4        C35.4,87.4,35.6,87.9,35.8,88.4z"></path>
					</g>
				</g>
			</g>
		</g>
	</g>
	<g style="opacity:0.5;">
		<g>
			<g>
				<g>
					<g>
						<path style="fill:#FFFFFF;" d="M41.4,79.2c3.9-0.8,7.5,1.3,7.9,4.7c0.4,3.4-2.4,6.9-6.3,7.8c-3.9,0.8-7.5-1.3-7.9-4.7        C34.6,83.5,37.5,80,41.4,79.2z"></path>
					</g>
				</g>
			</g>
		</g>
	</g>
	<polygon style="fill:#FFCF9C;" points="61.2,96 66.3,95.8 67,95.6 66.4,93.4 65.8,93.6 61.1,95.6  "></polygon>
	<polygon style="fill:#ECBA84;" points="61.2,96 66.9,95.2 66.6,93.9 61.1,95.6  "></polygon>
	<polygon style="fill:#C6794D;" points="66.6,95 62.1,95.7 61.2,96.1 66.5,95.8 66.8,95.7  "></polygon>
	<polygon style="fill:#A44AA0;" points="62.2,96 60.1,96.1 62.7,94.9 62.5,95.5  "></polygon>
	<polygon style="fill:#530254;" points="60.1,96.1 62.4,95.7 62.3,96  "></polygon>
	<polygon style="fill:#C499C8;" points="60.1,96 62.7,95.1 62.7,94.9  "></polygon>
	<path style="fill:#C499C8;" d="M66.8,95.7l-0.1-0.5l-0.3-1.3c0,0-0.5,0.1-0.6-0.1c-0.1-0.2,0.4-0.4,0.4-0.4l28.7-6.8l0.6,0.4   l0.3,1.1l-0.4,0.7L66.8,95.7z"></path>
	<path style="fill:#A44AA0;" d="M95.6,87l0.3,1.1l-29.2,7c0,0-0.6,0-0.7-0.4c-0.1-0.5,0.5-0.7,0.5-0.7L95.6,87z"></path>
	<path style="fill:#753877;" d="M95.5,88.8l0.4-0.8l-29.2,7c0,0-0.5,0.1-0.4,0.5c0,0.3,0.6,0.2,0.6,0.2L95.5,88.8z"></path>
</g>
</svg>