<svg xmlns="http://www.w3.org/2000/svg" xmlns:xlink="http://www.w3.org/1999/xlink" fill="#00d2dc" x="0px" y="0px" viewBox="0 0 100 100" style="enable-background:new 0 0 100 100;" xml:space="preserve">
<path style="fill-rule:evenodd; clip-rule:evenodd;" d="M5.4,26.4H50h44.6L50,5.4L5.4,26.4L5.4,26.4z M0.1,89.4h99.7  v5.3H0.1V89.4L0.1,89.4z M73.6,47.4h5.3v-5.3h-5.3V31.6h5.3h5.3v31.5h-5.3v-5.3h-5.3V47.4L73.6,47.4z M57.9,47.4h5.3v-5.3h-5.3V31.6  h5.3h5.2v31.5h-5.2v-5.3h-5.3V47.4L57.9,47.4z M42.1,47.4h5.3v-5.3h-5.3V31.6h5.3h5.2v31.5h-5.2v-5.3h-5.3V47.4L42.1,47.4z   M26.4,47.4h5.2v-5.3h-5.2V31.6h5.2h5.3v31.5h-5.3v-5.3h-5.2V47.4L26.4,47.4z M15.9,31.6h5.3v31.5h-5.3V31.6L15.9,31.6z M5.4,78.9  h89.2v5.3H5.4V78.9L5.4,78.9z M10.6,68.4h78.7v5.2H10.6V68.4L10.6,68.4z M28.9,21.1h42.3L50,11.2L28.9,21.1L28.9,21.1z"></path>
</svg>