<svg xmlns="http://www.w3.org/2000/svg" xmlns:xlink="http://www.w3.org/1999/xlink" fill="#f0aa00" x="0px" y="0px" viewBox="0 0 100 100" style="enable-background:new 0 0 100 100;" xml:space="preserve">
<path style="fill-rule:evenodd; clip-rule:evenodd;" d="M69.1,8.8L42.5,28.5L16,8.8V23C9,23.6,2.8,25.4,0,28.5v53.2  c7-7.7,35.6-7.7,42.5,0c2.4-2.6,7.2-4.3,12.8-5.2c3.9,4.7,9.8,7.8,16.4,7.8c4.9,0,9.4-1.7,13-4.5l11.4,11.4l3.8-3.8L88.6,76.1  c2.8-3.6,4.5-8.1,4.5-13c0-6.7-3.1-12.7-8-16.6V28.5c-2.8-3.1-9-4.9-16-5.5V8.8L69.1,8.8z M64.3,70.5c4.2,4.1,10.9,4.1,15,0  l-3.8-3.8c-2.1,2.1-5.4,2.1-7.5,0c-2.1-2.1-2.1-5.4,0-7.5l-3.8-3.8C60.1,59.7,60.1,66.4,64.3,70.5L64.3,70.5z M55.8,63  c0-8.8,7.1-16,16-16c8.8,0,16,7.1,16,16c0,8.8-7.1,16-16,16C63,79,55.8,71.8,55.8,63L55.8,63z M50.5,63c0-8.9,5.5-16.6,13.3-19.7  V19.4L45.2,33.2v40l6.1-4.5C50.8,66.9,50.5,65,50.5,63L50.5,63z M69.1,41.9c0.9-0.1,1.8-0.2,2.7-0.2c2.8,0,5.5,0.5,8,1.5V31  c-2.5-1.5-6.9-2.3-10.6-2.7V41.9L69.1,41.9z M39.9,33.2L21.3,19.4v40.1l18.6,13.7V33.2L39.9,33.2z M27.8,70.9L16,62.2V28.4  c-3.7,0.4-8.1,1.2-10.6,2.7v41.8C11.9,70.7,20.2,70.1,27.8,70.9L27.8,70.9z"></path>
</svg>