<svg xmlns="http://www.w3.org/2000/svg" xmlns:xlink="http://www.w3.org/1999/xlink" x="0px" y="0px" fill="white" viewBox="0 0 100 100" style="enable-background:new 0 0 100 100;" xml:space="preserve">
<path fill-rule="evenodd" clip-rule="evenodd" d="M41.2,30.6v4.3c-0.1,4.7,4,8.7,8.7,8.7c4.7,0,8.8-3.9,8.7-8.6v-8.7c-2.3,0-4.4-0.9-6-2.4  C50.4,27.8,46.1,30.6,41.2,30.6L41.2,30.6z M47.7,59.3v36.4h4.4V59.3H47.7L47.7,59.3z M43.3,94.8V59L21.5,45.4c0,5.2,0,10.5,0,15.7  l1.9,0.9c2.6,1.3,4.6,4.2,4.6,7.2c0,2.7,0,5.4,0,8.1c0,2.2-1,4.2-3,5.3L43.3,94.8L43.3,94.8z M56.4,94.8V59l21.8-13.6v15.8L76.6,62  c-2.6,1.3-4.6,4.2-4.6,7.2c0,2.7,0,5.4,0,8.1c0,1.6,0.5,3.1,1.6,4.2c0.4,0.4,0.8,0.7,1.3,1L56.4,94.8L56.4,94.8z M87.2,70  c0,2.9,0,1.5,0,4.4c0,1.4-1.3,3-2.6,3.3l-5.8,1.2c-1.3,0.3-2.5-0.2-2.5-1.6c0-4.4,0-3.8,0-8.1c0-1.2,1-2.7,2.2-3.2l4.4-2.1v-4.4  C87.3,61.7,87.2,63.6,87.2,70L87.2,70z M12.8,70c0,2.9,0,1.5,0,4.4c0,1.4,1.3,3,2.6,3.3l5.8,1.2c1.3,0.3,2.5-0.2,2.5-1.6  c0-4.4,0-3.8,0-8.1c0-1.2-1-2.7-2.2-3.2l-4.4-2.1v-4.4C12.7,61.7,12.8,63.6,12.8,70L12.8,70z M14.5,81.9c-3.4-0.7-6.1-4.2-6.1-7.6  c0-1.5,0-2.9,0-4.4c0-6.8,0-10.9,6.7-14.4l2-1v-17l9.5,6c0.8-0.3,1.4-1.1,1.4-2V21.9C28,9.9,37.9,0,49.9,0  c11.9,0,21.9,9.9,21.8,21.9v19.6c0,0.9,0.6,1.7,1.4,2l9.5-6v16.9l2.2,1.1c6.8,3.5,6.7,7.7,6.7,14.4c0,1.5,0,2.9,0,4.4  c0,3.4-2.7,6.9-6.1,7.6l-2.9,0.6L56.4,100H43.3L17.2,82.6L14.5,81.9L14.5,81.9z M59,52.2l10.1-6.3c-1.1-1.2-1.8-2.7-1.8-4.5V21.8  c0.1-9.6-7.9-17.5-17.4-17.5c-9.5,0-17.5,7.9-17.4,17.5v19.6c0,1.7-0.7,3.3-1.8,4.5l10.1,6.3v-8c-2.4-2.4-4-5.7-3.9-9.3v-4.3v-4.4  h4.3c4.8,0,8.8-3.9,8.8-8.8v-4.4h4.4v4.4c0,2.4,2,4.4,4.4,4.4H63v4.3v8.7c0,3.6-1.5,6.9-3.9,9.3V52.2L59,52.2z M45.1,54.9h9.6V47  c-1.5,0.6-3.1,0.9-4.8,0.9c-1.7,0-3.3-0.3-4.8-0.9V54.9L45.1,54.9z"></path>
</svg>