<svg xmlns="http://www.w3.org/2000/svg" xmlns:xlink="http://www.w3.org/1999/xlink" x="0px" y="0px" fill="white" viewBox="0 0 100 100" style="enable-background:new 0 0 100 100;" xml:space="preserve">
<path fill-rule="evenodd" clip-rule="evenodd" d="M31.8,43.2h4.5v45.5h-4.5V43.2L31.8,43.2z M13.6,11.4h72.7v4.5H13.6V11.4L13.6,11.4z M18.2,20.5h63.6V25h-9.1  v9.1h11.4c8.8,0,15.9,7.1,15.9,15.9c0,8.8-7.1,15.9-15.9,15.9c-6.2,0-11.4-5.1-11.4-11.4c0-6.2,5.1-11.4,11.4-11.4  c3.8,0,6.8,3.1,6.8,6.8c0,3.8-3.1,6.8-6.8,6.8c-1.2,0-2.3-1-2.3-2.3c0-1.2,1-2.3,2.3-2.3c1.3,0,2.3-1,2.3-2.3c0-1.3-1-2.3-2.3-2.3  c-0.3,0-0.6,0-0.8,0.1c-3.4,0.4-6,3.3-6,6.8c0,3.7,3.1,6.8,6.8,6.8c6.3,0,11.4-5.1,11.4-11.4c0-6.3-5.1-11.4-11.4-11.4H72.7H27.3  H15.9C9.6,38.6,4.5,43.7,4.5,50c0,6.3,5.1,11.4,11.4,11.4c3.7,0,6.8-3.1,6.8-6.8c0-3.5-2.6-6.4-6-6.8c-0.3,0-0.6,0-0.8-0.1  c-1.3,0-2.3,1-2.3,2.3c0,1.3,1,2.3,2.3,2.3c1.2,0,2.3,1,2.3,2.3c0,1.2-1,2.2-2.2,2.3c-3.8,0.1-6.9-3.1-6.9-6.8  c0-3.8,3.1-6.8,6.8-6.8c6.2,0,11.4,5.1,11.4,11.4c0,6.2-5.1,11.4-11.4,11.4C7.1,65.9,0,58.8,0,50c0-8.8,7.1-15.9,15.9-15.9h11.4V25  h-9.1V20.5L18.2,20.5z M68.2,25H31.8v9.1h36.4V25L68.2,25z M63.6,43.2h4.5v45.5h-4.5V43.2L63.6,43.2z M54.5,43.2h4.5v45.5h-4.5V43.2  L54.5,43.2z M40.9,43.2h4.5v45.5h-4.5V43.2L40.9,43.2z"></path>
</svg>