<svg xmlns="http://www.w3.org/2000/svg" xmlns:xlink="http://www.w3.org/1999/xlink" x="0px" y="0px" fill="white" viewBox="0 0 100 100" style="enable-background:new 0 0 100 100;" xml:space="preserve">
<path fill-rule="evenodd" clip-rule="evenodd" d="M94.5,69.2H52.1v5.5h42.4V69.2L94.5,69.2z M89,25.3H57.6v5.5H89V25.3L89,25.3z M34.3,36.3  c-0.9-2.6-1.4-5.3-1.4-8.2c0-2.9,0.5-5.6,1.4-8.2h-9.6c-4.5,0-8.2,3.7-8.2,8.2c0,4.5,3.7,8.2,8.2,8.2H34.3L34.3,36.3z M40.2,19.8  c-1.2,2.5-1.9,5.3-1.9,8.2s0.7,5.7,1.9,8.2h6.4h0c-1.7-2.3-2.8-5.1-2.8-8.2c0-3,1-5.9,2.8-8.2H40.2L40.2,19.8z M24.7,14.4h32.9h36.9  v5.5H57.6c-4.5,0-8.2,3.7-8.2,8.2c0,4.5,3.7,8.2,8.2,8.2h36.9v5.5H60.6h-3h-11c-4.5,0-8.2,3.7-8.2,8.2c0,4.5,3.7,8.2,8.2,8.2h5.5h3  H100v5.5H52.1c-4.5,0-8.2,3.7-8.2,8.2c0,4.5,3.7,8.2,8.2,8.2H100v5.5H52.1H19.2c-7.5,0-13.7-6.2-13.7-13.7c0-3.5,1.3-6.6,3.5-9.1  c-5.2-1.9-9-7-9-12.9c0-7.5,6.2-13.7,13.7-13.7h0C12,34,11,31.1,11,28.1C11,20.6,17.2,14.4,24.7,14.4L24.7,14.4z M89,47.3H46.6v5.5  H89V47.3L89,47.3z M23.3,58.2c-0.9-2.6-1.4-5.3-1.4-8.2c0-2.9,0.5-5.6,1.4-8.2h-9.6c-4.5,0-8.2,3.7-8.2,8.2c0,4.5,3.7,8.2,8.2,8.2  H23.3L23.3,58.2z M29.3,41.8c-1.2,2.5-1.9,5.3-1.9,8.2c0,2.9,0.7,5.7,1.9,8.2h6.4c-1.7-2.3-2.8-5.1-2.8-8.2c0-3,1-5.9,2.8-8.2H29.3  L29.3,41.8z M41.1,63.7h-6.4c-1.2,2.5-1.9,5.3-1.9,8.2c0,2.9,0.7,5.7,1.9,8.2h6.4c-1.7-2.3-2.8-5.1-2.8-8.2  C38.4,69,39.4,66.1,41.1,63.7L41.1,63.7z M28.8,63.7h-9.7c-4.5,0-8.2,3.7-8.2,8.2c0,4.5,3.7,8.2,8.2,8.2h9.6  c-0.9-2.6-1.4-5.3-1.4-8.2C27.4,69,27.9,66.3,28.8,63.7L28.8,63.7z"></path>
</svg>