<svg xmlns="http://www.w3.org/2000/svg" xmlns:xlink="http://www.w3.org/1999/xlink" x="0px" y="0px" fill="white" viewBox="0 0 100 100" style="enable-background:new 0 0 100 100;" xml:space="preserve">
<path fill-rule="evenodd" clip-rule="evenodd" d="M66.8,53.5l5.8,15.9h6v4.4h-4.4l4,10.9L74,86.2l3,8.2l-2.6,5.6l-4.5-12.3l-4.1,1.5l-5.6-15.4H39.8l-5.6,15.4  l-4.1-1.5L25.6,100L23,94.4l3-8.2l-4.1-1.5l4-10.9h-4.4v-4.4h6l5.8-15.9c-3.2-3.8-5.1-8.7-5.1-14.1c0-11.4,8.6-20.7,19.7-21.8  l0-13.2h-4.4V0h4.4h4.4h4.4v4.4h-4.4l0,13.2c11.1,1.1,19.7,10.4,19.7,21.8C71.9,44.8,70,49.7,66.8,53.5L66.8,53.5z M58.6,69.4  L50,45.8l-8.6,23.5H58.6L58.6,69.4z M52.2,22v4.2h-4.4l0-4.2c-8.6,1.1-15.3,8.4-15.3,17.4c0,3.3,0.9,6.4,2.6,9.1h4.7L27.5,82  l4.1,1.5l16.1-44.1h4.7l16.1,44.1l4.1-1.5L60.3,48.5H65c1.6-2.6,2.6-5.8,2.6-9.1C67.5,30.5,60.8,23.1,52.2,22L52.2,22z"></path>
</svg>